%TF.GenerationSoftware,KiCad,Pcbnew,9.0.6*%
%TF.CreationDate,2026-05-01T13:05:24-05:00*%
%TF.ProjectId,LANCE,4c414e43-452e-46b6-9963-61645f706362,1.02*%
%TF.SameCoordinates,Original*%
%TF.FileFunction,Soldermask,Top*%
%TF.FilePolarity,Negative*%
%FSLAX46Y46*%
G04 Gerber Fmt 4.6, Leading zero omitted, Abs format (unit mm)*
G04 Created by KiCad (PCBNEW 9.0.6) date 2026-05-01 13:05:24*
%MOMM*%
%LPD*%
G01*
G04 APERTURE LIST*
G04 Aperture macros list*
%AMRoundRect*
0 Rectangle with rounded corners*
0 $1 Rounding radius*
0 $2 $3 $4 $5 $6 $7 $8 $9 X,Y pos of 4 corners*
0 Add a 4 corners polygon primitive as box body*
4,1,4,$2,$3,$4,$5,$6,$7,$8,$9,$2,$3,0*
0 Add four circle primitives for the rounded corners*
1,1,$1+$1,$2,$3*
1,1,$1+$1,$4,$5*
1,1,$1+$1,$6,$7*
1,1,$1+$1,$8,$9*
0 Add four rect primitives between the rounded corners*
20,1,$1+$1,$2,$3,$4,$5,0*
20,1,$1+$1,$4,$5,$6,$7,0*
20,1,$1+$1,$6,$7,$8,$9,0*
20,1,$1+$1,$8,$9,$2,$3,0*%
G04 Aperture macros list end*
%ADD10RoundRect,0.257038X-1.430962X1.130962X-1.430962X-1.130962X1.430962X-1.130962X1.430962X1.130962X0*%
%ADD11O,3.376000X2.776000*%
%ADD12RoundRect,0.261875X0.576125X-1.526125X0.576125X1.526125X-0.576125X1.526125X-0.576125X-1.526125X0*%
%ADD13RoundRect,0.775200X1.162800X1.162800X-1.162800X1.162800X-1.162800X-1.162800X1.162800X-1.162800X0*%
%ADD14C,4.076000*%
%ADD15RoundRect,0.038000X0.450000X1.000000X-0.450000X1.000000X-0.450000X-1.000000X0.450000X-1.000000X0*%
%ADD16RoundRect,1.044000X1.044000X1.044000X-1.044000X1.044000X-1.044000X-1.044000X1.044000X-1.044000X0*%
%ADD17C,4.176000*%
%ADD18C,1.476000*%
%ADD19RoundRect,0.786720X-1.001280X-1.001280X1.001280X-1.001280X1.001280X1.001280X-1.001280X1.001280X0*%
%ADD20C,3.576000*%
%ADD21RoundRect,0.256500X-0.319000X-0.256500X0.319000X-0.256500X0.319000X0.256500X-0.319000X0.256500X0*%
%ADD22RoundRect,0.256500X0.306500X0.256500X-0.306500X0.256500X-0.306500X-0.256500X0.306500X-0.256500X0*%
%ADD23RoundRect,0.038000X-0.901700X-0.419100X0.901700X-0.419100X0.901700X0.419100X-0.901700X0.419100X0*%
%ADD24RoundRect,0.038000X-0.355600X-0.419100X0.355600X-0.419100X0.355600X0.419100X-0.355600X0.419100X0*%
%ADD25RoundRect,0.038000X-0.450000X-1.000000X0.450000X-1.000000X0.450000X1.000000X-0.450000X1.000000X0*%
%ADD26RoundRect,1.044000X-1.044000X-1.044000X1.044000X-1.044000X1.044000X1.044000X-1.044000X1.044000X0*%
%ADD27C,1.600000*%
%ADD28RoundRect,0.038000X0.762000X0.762000X-0.762000X0.762000X-0.762000X-0.762000X0.762000X-0.762000X0*%
%ADD29RoundRect,0.256500X-0.306500X-0.256500X0.306500X-0.256500X0.306500X0.256500X-0.306500X0.256500X0*%
%ADD30C,2.362000*%
%ADD31C,5.076000*%
%ADD32RoundRect,0.038000X0.850000X-0.850000X0.850000X0.850000X-0.850000X0.850000X-0.850000X-0.850000X0*%
%ADD33C,1.776000*%
%ADD34RoundRect,0.261875X-0.576125X1.526125X-0.576125X-1.526125X0.576125X-1.526125X0.576125X1.526125X0*%
%ADD35RoundRect,0.257038X1.430962X-1.130962X1.430962X1.130962X-1.430962X1.130962X-1.430962X-1.130962X0*%
%ADD36C,1.576000*%
%ADD37RoundRect,0.038000X0.750000X0.750000X-0.750000X0.750000X-0.750000X-0.750000X0.750000X-0.750000X0*%
%ADD38RoundRect,0.264339X-0.436161X-1.123661X0.436161X-1.123661X0.436161X1.123661X-0.436161X1.123661X0*%
%ADD39C,3.251000*%
%ADD40RoundRect,0.038000X1.587500X1.587500X-1.587500X1.587500X-1.587500X-1.587500X1.587500X-1.587500X0*%
%ADD41RoundRect,0.786720X1.001280X1.001280X-1.001280X1.001280X-1.001280X-1.001280X1.001280X-1.001280X0*%
G04 APERTURE END LIST*
D10*
%TO.C,J24*%
X47050000Y-112900000D03*
D11*
X47050000Y-117100000D03*
X41550000Y-112900000D03*
X41550000Y-117100000D03*
%TD*%
D12*
%TO.C,C19*%
X70500000Y-171200000D03*
X70500000Y-165800000D03*
%TD*%
D13*
%TO.C,J13*%
X62900000Y-162252749D03*
D14*
X57900000Y-162252749D03*
%TD*%
D10*
%TO.C,J20*%
X62922750Y-170500000D03*
D11*
X57422750Y-170500000D03*
%TD*%
D15*
%TO.C,J12*%
X60050000Y-186122750D03*
X46550000Y-186122750D03*
D16*
X49700000Y-180122750D03*
D17*
X56900000Y-180122750D03*
%TD*%
D13*
%TO.C,J6*%
X48000000Y-66000000D03*
D14*
X43000000Y-66000000D03*
%TD*%
D12*
%TO.C,C16*%
X82500000Y-171400000D03*
X82500000Y-166000000D03*
%TD*%
D18*
%TO.C,J2*%
X87950000Y-46122749D03*
X98950000Y-46122749D03*
D19*
X95950000Y-56122749D03*
D20*
X90950000Y-56122749D03*
%TD*%
D12*
%TO.C,C18*%
X91500000Y-171400000D03*
X91500000Y-166000000D03*
%TD*%
D13*
%TO.C,J9*%
X48000000Y-74000000D03*
D14*
X43000000Y-74000000D03*
%TD*%
D21*
%TO.C,C13*%
X77087500Y-59462749D03*
X78812500Y-59462749D03*
%TD*%
D22*
%TO.C,D2*%
X60950000Y-55122749D03*
X59200000Y-55122749D03*
%TD*%
D23*
%TO.C,D9*%
X76802300Y-62962749D03*
D24*
X78643800Y-62962749D03*
%TD*%
D25*
%TO.C,J1*%
X63450000Y-44772749D03*
X76950000Y-44772749D03*
D26*
X66600000Y-50772749D03*
D17*
X73800000Y-50772749D03*
%TD*%
D10*
%TO.C,J19*%
X49000000Y-170500000D03*
D11*
X43500000Y-170500000D03*
%TD*%
D10*
%TO.C,J23*%
X47050000Y-88900000D03*
D11*
X47050000Y-93100000D03*
X41550000Y-88900000D03*
X41550000Y-93100000D03*
%TD*%
D27*
%TO.C,A6*%
X66550000Y-99790000D03*
X66550000Y-97250000D03*
X66550000Y-94710000D03*
X66550000Y-92170000D03*
X66550000Y-89630000D03*
X66550000Y-87090000D03*
X66550000Y-84550000D03*
X66550000Y-82010000D03*
X53850000Y-99790000D03*
D28*
X53850000Y-97250000D03*
D27*
X53850000Y-94710000D03*
X53850000Y-92170000D03*
X53850000Y-89630000D03*
X53850000Y-87090000D03*
X53850000Y-84550000D03*
D28*
X53850000Y-82010000D03*
%TD*%
D29*
%TO.C,D3*%
X54075000Y-57712749D03*
X55825000Y-57712749D03*
%TD*%
D15*
%TO.C,J22*%
X107500000Y-186122750D03*
X94000000Y-186122750D03*
D16*
X97150000Y-180122750D03*
D17*
X104350000Y-180122750D03*
%TD*%
D27*
%TO.C,A8*%
X43460000Y-135180000D03*
X43460000Y-137720000D03*
X43460000Y-140260000D03*
X43460000Y-142800000D03*
X43460000Y-145340000D03*
X43460000Y-147880000D03*
X43460000Y-150420000D03*
X43460000Y-152960000D03*
X43460000Y-155500000D03*
X46000000Y-155500000D03*
D30*
X58954000Y-138812200D03*
D27*
X61240000Y-140260000D03*
D30*
X58954000Y-142317400D03*
D27*
X61240000Y-142800000D03*
D30*
X58954000Y-145822600D03*
D27*
X61240000Y-145340000D03*
D30*
X58954000Y-149327800D03*
D27*
X61240000Y-147880000D03*
%TD*%
D29*
%TO.C,D1*%
X54075000Y-52532749D03*
X55825000Y-52532749D03*
%TD*%
D31*
%TO.C,REF\u002A\u002A*%
X38300000Y-46122749D03*
%TD*%
%TO.C,REF\u002A\u002A*%
X115300000Y-46122749D03*
%TD*%
D10*
%TO.C,J15*%
X47300000Y-125000000D03*
D11*
X47300000Y-129200000D03*
X41800000Y-125000000D03*
X41800000Y-129200000D03*
%TD*%
D32*
%TO.C,J26*%
X70525000Y-121275000D03*
D33*
X70525000Y-118735000D03*
X73065000Y-121275000D03*
X73065000Y-118735000D03*
%TD*%
D13*
%TO.C,J17*%
X49250000Y-162000000D03*
D14*
X44250000Y-162000000D03*
%TD*%
D32*
%TO.C,J25*%
X70760000Y-97275000D03*
D33*
X70760000Y-94735000D03*
X73300000Y-97275000D03*
X73300000Y-94735000D03*
%TD*%
D15*
%TO.C,J21*%
X80250000Y-186122750D03*
X66750000Y-186122750D03*
D16*
X69900000Y-180122750D03*
D17*
X77100000Y-180122750D03*
%TD*%
D27*
%TO.C,A4*%
X71980000Y-60892749D03*
X69440000Y-60892749D03*
X66900000Y-60892749D03*
X64360000Y-60892749D03*
X61820000Y-60892749D03*
X71980000Y-71582749D03*
%TD*%
D34*
%TO.C,C17*%
X87000000Y-180800000D03*
X87000000Y-186200000D03*
%TD*%
D35*
%TO.C,J16*%
X107000000Y-171500000D03*
D11*
X107000000Y-167300000D03*
X112500000Y-171500000D03*
X112500000Y-167300000D03*
%TD*%
D31*
%TO.C,REF\u002A\u002A*%
X38300000Y-184622700D03*
%TD*%
D36*
%TO.C,U4*%
X80450000Y-89602749D03*
X80450000Y-115002749D03*
X80450000Y-112462749D03*
X105850000Y-92142749D03*
X105850000Y-115002749D03*
X105850000Y-112462749D03*
X105850000Y-109922749D03*
X105850000Y-107382749D03*
X105850000Y-94682749D03*
X105850000Y-87062749D03*
X105850000Y-84522749D03*
X105850000Y-81982749D03*
X105850000Y-79442749D03*
X105850000Y-76902749D03*
X105850000Y-74362749D03*
X105850000Y-104842749D03*
X105850000Y-102302749D03*
X105850000Y-99762749D03*
X105850000Y-97222749D03*
X80450000Y-74362749D03*
X80450000Y-76902749D03*
X80450000Y-79442749D03*
X80450000Y-92142749D03*
X80450000Y-94682749D03*
X80450000Y-97222749D03*
X80450000Y-99762749D03*
X80450000Y-102302749D03*
X80450000Y-104842749D03*
X80450000Y-107382749D03*
X80450000Y-109922749D03*
X80450000Y-120082749D03*
X80450000Y-117542749D03*
X80450000Y-87062749D03*
X105850000Y-89602749D03*
X80450000Y-81982749D03*
X80450000Y-84522749D03*
D37*
X105850000Y-122622749D03*
D36*
X105850000Y-120082749D03*
X105850000Y-117542749D03*
X105850000Y-71822749D03*
X105850000Y-69282749D03*
D37*
X80450000Y-122622749D03*
D36*
X80450000Y-71822749D03*
X80450000Y-69282749D03*
%TD*%
D38*
%TO.C,C12*%
X76525000Y-55462749D03*
X79650000Y-55462749D03*
%TD*%
D27*
%TO.C,A1*%
X106010000Y-159252749D03*
X106010000Y-156712749D03*
X106010000Y-154172749D03*
X106010000Y-151632749D03*
X106010000Y-149092749D03*
X106010000Y-146552749D03*
X106010000Y-144012749D03*
D28*
X106010000Y-141472749D03*
D27*
X106010000Y-138932749D03*
D28*
X106010000Y-136392749D03*
D39*
X72101000Y-157855749D03*
D27*
X70450000Y-159252749D03*
X70450000Y-156712749D03*
D39*
X72101000Y-152851949D03*
D27*
X70450000Y-154172749D03*
X70450000Y-151632749D03*
D40*
X72101000Y-147848149D03*
D28*
X70450000Y-149092749D03*
X70450000Y-146552749D03*
D39*
X72101000Y-142844349D03*
D27*
X70450000Y-144012749D03*
X70450000Y-141472749D03*
X103470000Y-151632749D03*
%TD*%
%TO.C,A7*%
X66550000Y-123790000D03*
X66550000Y-121250000D03*
X66550000Y-118710000D03*
X66550000Y-116170000D03*
X66550000Y-113630000D03*
X66550000Y-111090000D03*
X66550000Y-108550000D03*
X66550000Y-106010000D03*
X53850000Y-123790000D03*
D28*
X53850000Y-121250000D03*
D27*
X53850000Y-118710000D03*
X53850000Y-116170000D03*
X53850000Y-113630000D03*
X53850000Y-111090000D03*
X53850000Y-108550000D03*
D28*
X53850000Y-106010000D03*
%TD*%
D31*
%TO.C,REF\u002A\u002A*%
X115300000Y-184122700D03*
%TD*%
D18*
%TO.C,J3*%
X98950000Y-43622749D03*
X87950000Y-43622749D03*
D41*
X95950000Y-48622749D03*
D20*
X90950000Y-48622749D03*
%TD*%
M02*
