M48
; DRILL file {KiCad 9.0.6} date 2026-05-01T13:05:28-0500
; FORMAT={-:-/ absolute / metric / decimal}
; #@! TF.CreationDate,2026-05-01T13:05:28-05:00
; #@! TF.GenerationSoftware,Kicad,Pcbnew,9.0.6
; #@! TF.FileFunction,Plated,1,2,PTH
FMAT,2
METRIC
; #@! TA.AperFunction,Plated,PTH,ViaDrill
T1C0.200
; #@! TA.AperFunction,Plated,PTH,ViaDrill
T2C0.300
; #@! TA.AperFunction,Plated,PTH,ViaDrill
T3C0.500
; #@! TA.AperFunction,Plated,PTH,ComponentDrill
T4C0.600
; #@! TA.AperFunction,Plated,PTH,ComponentDrill
T5C0.762
; #@! TA.AperFunction,Plated,PTH,ComponentDrill
T6C0.900
; #@! TA.AperFunction,Plated,PTH,ComponentDrill
T7C1.000
; #@! TA.AperFunction,Plated,PTH,ComponentDrill
T8C1.016
; #@! TA.AperFunction,Plated,PTH,ComponentDrill
T9C1.400
; #@! TA.AperFunction,Plated,PTH,ComponentDrill
T10C1.524
; #@! TA.AperFunction,Plated,PTH,ComponentDrill
T11C1.900
; #@! TA.AperFunction,Plated,PTH,ComponentDrill
T12C2.184
; #@! TA.AperFunction,Plated,PTH,ComponentDrill
T13C2.700
%
G90
G05
T1
X82.0Y-112.0
T2
X37.2Y-50.2
X37.2Y-52.4
X37.2Y-54.6
X37.2Y-131.6
X37.2Y-133.8
X37.2Y-136.0
X37.2Y-138.2
X37.2Y-140.4
X37.2Y-142.6
X37.2Y-144.8
X37.2Y-147.0
X37.2Y-149.2
X37.2Y-151.4
X37.2Y-153.6
X37.2Y-155.8
X37.2Y-158.0
X37.2Y-160.2
X37.2Y-162.4
X37.2Y-164.6
X37.2Y-166.8
X37.2Y-169.0
X37.2Y-171.2
X37.2Y-173.4
X37.2Y-175.6
X37.2Y-177.8
X37.2Y-180.0
X39.4Y-50.2
X39.4Y-52.4
X39.4Y-61.2
X39.4Y-63.4
X39.4Y-65.6
X39.4Y-67.8
X39.4Y-70.0
X39.4Y-72.2
X39.4Y-74.4
X39.4Y-76.6
X39.4Y-78.8
X39.4Y-81.0
X39.4Y-83.2
X39.4Y-85.4
X39.4Y-96.4
X39.4Y-98.6
X39.4Y-100.8
X39.4Y-103.0
X39.4Y-105.2
X39.4Y-107.4
X39.4Y-109.6
X39.4Y-120.6
X39.4Y-149.2
X39.4Y-151.4
X39.4Y-153.6
X39.4Y-155.8
X39.4Y-158.0
X39.4Y-160.2
X39.4Y-162.4
X39.4Y-164.6
X39.4Y-166.8
X39.4Y-169.0
X39.4Y-171.2
X39.4Y-173.4
X39.4Y-175.6
X39.4Y-177.8
X39.4Y-180.0
X41.6Y-50.2
X41.6Y-52.4
X41.6Y-59.0
X41.6Y-61.2
X41.6Y-78.8
X41.6Y-81.0
X41.6Y-83.2
X41.6Y-98.6
X41.6Y-100.8
X41.6Y-103.0
X41.6Y-105.2
X41.6Y-158.0
X41.6Y-166.8
X41.6Y-173.4
X41.6Y-175.6
X41.6Y-177.8
X41.6Y-180.0
X43.8Y-43.6
X43.8Y-45.8
X43.8Y-48.0
X43.8Y-50.2
X43.8Y-52.4
X43.8Y-56.8
X43.8Y-59.0
X43.8Y-61.2
X43.8Y-81.0
X43.8Y-100.8
X43.8Y-103.0
X43.8Y-105.2
X43.8Y-158.0
X43.8Y-166.8
X43.8Y-175.6
X43.8Y-177.8
X43.8Y-180.0
X43.8Y-182.2
X43.8Y-184.4
X43.8Y-186.6
X46.0Y-43.6
X46.0Y-45.8
X46.0Y-48.0
X46.0Y-50.2
X46.0Y-52.4
X46.0Y-56.8
X46.0Y-59.0
X46.0Y-61.2
X46.0Y-70.0
X46.0Y-81.0
X46.0Y-100.8
X46.0Y-103.0
X46.0Y-105.2
X46.0Y-133.8
X46.0Y-136.0
X46.0Y-147.0
X46.0Y-149.2
X46.0Y-151.4
X46.0Y-166.8
X46.0Y-177.8
X46.0Y-180.0
X46.0Y-182.2
X48.2Y-43.6
X48.2Y-45.8
X48.2Y-48.0
X48.2Y-50.2
X48.2Y-52.4
X48.2Y-56.8
X48.2Y-59.0
X48.2Y-61.2
X48.2Y-70.0
X48.2Y-81.0
X48.2Y-100.8
X48.2Y-103.0
X48.2Y-105.2
X48.2Y-133.8
X48.2Y-144.8
X48.2Y-147.0
X48.2Y-149.2
X48.2Y-151.4
X48.2Y-153.6
X48.2Y-166.8
X50.4Y-43.6
X50.4Y-45.8
X50.4Y-48.0
X50.4Y-50.2
X50.4Y-52.4
X50.4Y-56.8
X50.4Y-59.0
X50.4Y-61.2
X50.4Y-70.0
X50.4Y-81.0
X50.4Y-100.8
X50.4Y-103.0
X50.4Y-105.2
X50.4Y-125.0
X50.4Y-131.6
X50.4Y-142.6
X50.4Y-144.8
X50.4Y-147.0
X50.4Y-149.2
X50.4Y-151.4
X50.4Y-166.8
X50.4Y-173.4
X50.4Y-184.4
X50.4Y-186.6
X51.5Y-157.0
X52.6Y-43.6
X52.6Y-45.8
X52.6Y-48.0
X52.6Y-50.2
X52.6Y-61.2
X52.6Y-63.4
X52.6Y-65.6
X52.6Y-67.8
X52.6Y-70.0
X52.6Y-72.2
X52.6Y-74.4
X52.6Y-76.6
X52.6Y-103.0
X52.6Y-140.4
X52.6Y-142.6
X52.6Y-164.6
X52.6Y-166.8
X52.6Y-169.0
X52.6Y-171.2
X52.6Y-173.4
X52.6Y-184.4
X52.6Y-186.6
X54.8Y-43.6
X54.8Y-45.8
X54.8Y-48.0
X54.8Y-50.2
X54.8Y-70.0
X54.8Y-72.2
X54.8Y-74.4
X54.8Y-76.6
X54.8Y-103.0
X54.8Y-138.2
X54.8Y-140.4
X54.8Y-166.8
X54.8Y-173.4
X54.8Y-184.4
X54.8Y-186.6
X57.0Y-43.6
X57.0Y-45.8
X57.0Y-48.0
X57.0Y-50.2
X57.0Y-63.4
X57.0Y-72.2
X57.0Y-74.4
X57.0Y-76.6
X57.0Y-81.0
X57.0Y-83.2
X57.0Y-85.4
X57.0Y-87.6
X57.0Y-89.8
X57.0Y-92.0
X57.0Y-94.2
X57.0Y-103.0
X57.0Y-105.2
X57.0Y-107.4
X57.0Y-109.6
X57.0Y-111.8
X57.0Y-114.0
X57.0Y-116.2
X57.0Y-118.4
X57.0Y-136.0
X57.0Y-153.6
X57.0Y-155.8
X57.0Y-166.8
X57.0Y-173.4
X57.0Y-184.4
X57.0Y-186.6
X59.2Y-43.6
X59.2Y-45.8
X59.2Y-48.0
X59.2Y-50.2
X59.2Y-63.4
X59.2Y-65.6
X59.2Y-74.4
X59.2Y-76.6
X59.2Y-81.0
X59.2Y-83.2
X59.2Y-85.4
X59.2Y-87.6
X59.2Y-89.8
X59.2Y-92.0
X59.2Y-94.2
X59.2Y-103.0
X59.2Y-105.2
X59.2Y-107.4
X59.2Y-109.6
X59.2Y-111.8
X59.2Y-114.0
X59.2Y-116.2
X59.2Y-118.4
X59.2Y-166.8
X59.95Y-55.623
X61.4Y-43.6
X61.4Y-63.4
X61.4Y-65.6
X61.4Y-151.4
X61.4Y-166.8
X61.4Y-180.0
X61.4Y-182.2
X63.6Y-54.6
X63.6Y-63.4
X63.6Y-65.6
X63.6Y-142.6
X63.6Y-144.8
X63.6Y-147.0
X63.6Y-149.2
X63.6Y-151.4
X63.6Y-166.8
X63.6Y-180.0
X63.6Y-182.2
X63.6Y-184.4
X63.6Y-186.6
X65.8Y-43.6
X65.8Y-63.4
X65.8Y-65.6
X65.8Y-67.8
X65.8Y-70.0
X65.8Y-127.2
X65.8Y-144.8
X65.8Y-147.0
X65.8Y-149.2
X65.8Y-166.8
X65.8Y-180.0
X65.8Y-182.2
X68.0Y-43.6
X68.0Y-63.4
X68.0Y-65.6
X68.0Y-67.8
X68.0Y-78.8
X68.0Y-127.2
X68.0Y-136.0
X68.0Y-147.0
X68.0Y-149.2
X68.0Y-162.4
X68.0Y-164.6
X68.0Y-166.8
X68.0Y-169.0
X68.0Y-171.2
X70.2Y-43.6
X70.2Y-63.4
X70.2Y-65.6
X70.2Y-78.8
X70.2Y-87.6
X70.2Y-89.8
X70.2Y-92.0
X70.2Y-100.8
X70.2Y-111.8
X70.2Y-125.0
X70.2Y-127.2
X70.2Y-138.2
X70.2Y-162.4
X70.2Y-184.4
X70.2Y-186.6
X72.4Y-43.6
X72.4Y-63.4
X72.4Y-74.4
X72.4Y-78.8
X72.4Y-89.8
X72.4Y-92.0
X72.4Y-138.2
X72.4Y-162.4
X72.4Y-184.4
X72.4Y-186.6
X74.6Y-43.6
X74.6Y-184.4
X74.6Y-186.6
X76.8Y-184.4
X76.8Y-186.6
X79.0Y-43.6
X79.0Y-45.8
X79.0Y-151.4
X79.0Y-153.6
X79.0Y-155.8
X79.0Y-158.0
X79.0Y-160.2
X79.0Y-162.4
X79.0Y-164.6
X79.0Y-166.8
X79.0Y-169.0
X79.0Y-171.2
X81.2Y-43.6
X81.2Y-45.8
X81.2Y-48.0
X81.2Y-153.6
X81.2Y-155.8
X81.2Y-158.0
X81.2Y-160.2
X81.2Y-162.4
X81.2Y-180.0
X81.2Y-182.2
X83.4Y-43.6
X83.4Y-45.8
X83.4Y-48.0
X83.4Y-72.2
X83.4Y-74.4
X83.4Y-76.6
X83.4Y-78.8
X83.4Y-81.0
X83.4Y-83.2
X83.4Y-85.4
X83.4Y-87.6
X83.4Y-136.0
X83.4Y-138.2
X83.4Y-140.4
X83.4Y-142.6
X83.4Y-144.8
X83.4Y-155.8
X83.4Y-158.0
X83.4Y-160.2
X83.4Y-162.4
X83.4Y-180.0
X83.4Y-182.2
X83.4Y-184.4
X83.4Y-186.6
X85.6Y-43.6
X85.6Y-45.8
X85.6Y-48.0
X85.6Y-50.2
X85.6Y-72.2
X85.6Y-74.4
X85.6Y-76.6
X85.6Y-78.8
X85.6Y-81.0
X85.6Y-83.2
X85.6Y-85.4
X85.6Y-87.6
X85.6Y-89.8
X85.6Y-92.0
X85.6Y-94.2
X85.6Y-96.4
X85.6Y-98.6
X85.6Y-100.8
X85.6Y-105.2
X85.6Y-107.4
X85.6Y-109.6
X85.6Y-118.4
X85.6Y-120.6
X85.6Y-122.8
X85.6Y-133.8
X85.6Y-136.0
X85.6Y-138.2
X85.6Y-140.4
X85.6Y-142.6
X85.6Y-144.8
X85.6Y-147.0
X85.6Y-158.0
X85.6Y-160.2
X85.6Y-162.4
X85.6Y-164.6
X85.6Y-166.8
X85.6Y-169.0
X85.6Y-171.2
X87.8Y-50.2
X87.8Y-72.2
X87.8Y-74.4
X87.8Y-76.6
X87.8Y-78.8
X87.8Y-81.0
X87.8Y-83.2
X87.8Y-85.4
X87.8Y-87.6
X87.8Y-89.8
X87.8Y-92.0
X87.8Y-94.2
X87.8Y-96.4
X87.8Y-98.6
X87.8Y-100.8
X87.8Y-105.2
X87.8Y-107.4
X87.8Y-109.6
X87.8Y-116.2
X87.8Y-118.4
X87.8Y-120.6
X87.8Y-131.6
X87.8Y-133.8
X87.8Y-136.0
X87.8Y-138.2
X87.8Y-140.4
X87.8Y-142.6
X87.8Y-144.8
X87.8Y-147.0
X87.8Y-149.2
X87.8Y-160.2
X87.8Y-162.4
X87.8Y-164.6
X87.8Y-166.8
X87.8Y-169.0
X87.8Y-171.2
X90.0Y-43.6
X90.0Y-63.4
X90.0Y-70.0
X90.0Y-72.2
X90.0Y-74.4
X90.0Y-76.6
X90.0Y-78.8
X90.0Y-81.0
X90.0Y-83.2
X90.0Y-85.4
X90.0Y-87.6
X90.0Y-94.2
X90.0Y-96.4
X90.0Y-98.6
X90.0Y-100.8
X90.0Y-105.2
X90.0Y-107.4
X90.0Y-109.6
X90.0Y-116.2
X90.0Y-118.4
X90.0Y-129.4
X90.0Y-131.6
X90.0Y-133.8
X90.0Y-136.0
X90.0Y-138.2
X90.0Y-140.4
X90.0Y-142.6
X90.0Y-144.8
X90.0Y-147.0
X90.0Y-149.2
X90.0Y-151.4
X90.0Y-162.4
X90.0Y-180.0
X90.0Y-182.2
X90.0Y-184.4
X90.0Y-186.6
X92.2Y-43.6
X92.2Y-63.4
X92.2Y-65.6
X92.2Y-67.8
X92.2Y-70.0
X92.2Y-72.2
X92.2Y-74.4
X92.2Y-76.6
X92.2Y-78.8
X92.2Y-81.0
X92.2Y-83.2
X92.2Y-85.4
X92.2Y-87.6
X92.2Y-96.4
X92.2Y-98.6
X92.2Y-100.8
X92.2Y-105.2
X92.2Y-107.4
X92.2Y-109.6
X92.2Y-116.2
X92.2Y-127.2
X92.2Y-129.4
X92.2Y-131.6
X92.2Y-133.8
X92.2Y-136.0
X92.2Y-138.2
X92.2Y-140.4
X92.2Y-142.6
X92.2Y-144.8
X92.2Y-147.0
X92.2Y-149.2
X92.2Y-151.4
X92.2Y-153.6
X92.2Y-180.0
X92.2Y-182.2
X92.2Y-184.4
X92.2Y-186.6
X94.4Y-43.6
X94.4Y-65.6
X94.4Y-67.8
X94.4Y-70.0
X94.4Y-72.2
X94.4Y-74.4
X94.4Y-76.6
X94.4Y-78.8
X94.4Y-81.0
X94.4Y-83.2
X94.4Y-85.4
X94.4Y-87.6
X94.4Y-96.4
X94.4Y-98.6
X94.4Y-100.8
X94.4Y-105.2
X94.4Y-107.4
X94.4Y-125.0
X94.4Y-127.2
X94.4Y-129.4
X94.4Y-131.6
X94.4Y-133.8
X94.4Y-136.0
X94.4Y-138.2
X94.4Y-140.4
X94.4Y-142.6
X94.4Y-144.8
X94.4Y-147.0
X94.4Y-149.2
X94.4Y-151.4
X94.4Y-153.6
X94.4Y-155.8
X94.4Y-166.8
X94.4Y-169.0
X96.6Y-43.6
X96.6Y-67.8
X96.6Y-70.0
X96.6Y-72.2
X96.6Y-74.4
X96.6Y-76.6
X96.6Y-78.8
X96.6Y-81.0
X96.6Y-83.2
X96.6Y-85.4
X96.6Y-87.6
X96.6Y-122.8
X96.6Y-125.0
X96.6Y-127.2
X96.6Y-153.6
X96.6Y-155.8
X96.6Y-158.0
X96.6Y-184.4
X96.6Y-186.6
X98.8Y-103.0
X98.8Y-120.6
X98.8Y-122.8
X98.8Y-125.0
X98.8Y-133.8
X98.8Y-136.0
X98.8Y-147.0
X98.8Y-155.8
X98.8Y-158.0
X98.8Y-160.2
X98.8Y-184.4
X98.8Y-186.6
X101.0Y-43.6
X101.0Y-45.8
X101.0Y-48.0
X101.0Y-98.6
X101.0Y-100.8
X101.0Y-120.6
X101.0Y-122.8
X101.0Y-131.6
X101.0Y-133.8
X101.0Y-136.0
X101.0Y-138.2
X101.0Y-149.2
X101.0Y-162.4
X101.0Y-184.4
X101.0Y-186.6
X103.2Y-43.6
X103.2Y-45.8
X103.2Y-48.0
X103.2Y-50.2
X103.2Y-54.6
X103.2Y-56.8
X103.2Y-59.0
X103.2Y-61.2
X103.2Y-63.4
X103.2Y-129.4
X103.2Y-131.6
X103.2Y-133.8
X103.2Y-136.0
X103.2Y-138.2
X103.2Y-140.4
X103.2Y-149.2
X103.2Y-184.4
X103.2Y-186.6
X105.4Y-43.6
X105.4Y-45.8
X105.4Y-48.0
X105.4Y-50.2
X105.4Y-52.4
X105.4Y-54.6
X105.4Y-56.8
X105.4Y-59.0
X105.4Y-61.2
X105.4Y-63.4
X105.4Y-65.6
X105.4Y-127.2
X105.4Y-129.4
X105.4Y-131.6
X105.4Y-133.8
X105.4Y-184.4
X105.4Y-186.6
X107.6Y-43.6
X107.6Y-45.8
X107.6Y-48.0
X107.6Y-50.2
X107.6Y-52.4
X107.6Y-54.6
X107.6Y-56.8
X107.6Y-59.0
X107.6Y-61.2
X107.6Y-63.4
X107.6Y-65.6
X109.8Y-43.6
X109.8Y-45.8
X109.8Y-48.0
X109.8Y-50.2
X109.8Y-52.4
X109.8Y-54.6
X109.8Y-56.8
X109.8Y-59.0
X109.8Y-61.2
X109.8Y-63.4
X109.8Y-65.6
X109.8Y-67.8
X109.8Y-70.0
X109.8Y-72.2
X109.8Y-74.4
X109.8Y-76.6
X109.8Y-78.8
X109.8Y-81.0
X109.8Y-83.2
X109.8Y-85.4
X109.8Y-87.6
X109.8Y-89.8
X109.8Y-92.0
X109.8Y-94.2
X109.8Y-96.4
X109.8Y-98.6
X109.8Y-100.8
X109.8Y-177.8
X109.8Y-180.0
X109.8Y-182.2
X109.8Y-184.4
X109.8Y-186.6
X112.0Y-50.2
X112.0Y-52.4
X112.0Y-54.6
X112.0Y-56.8
X112.0Y-59.0
X112.0Y-61.2
X112.0Y-63.4
X112.0Y-65.6
X112.0Y-67.8
X112.0Y-70.0
X112.0Y-72.2
X112.0Y-74.4
X112.0Y-76.6
X112.0Y-78.8
X112.0Y-81.0
X112.0Y-83.2
X112.0Y-85.4
X112.0Y-87.6
X112.0Y-89.8
X112.0Y-92.0
X112.0Y-94.2
X112.0Y-96.4
X112.0Y-98.6
X112.0Y-100.8
X112.0Y-103.0
X112.0Y-164.6
X112.0Y-177.8
X112.0Y-180.0
X114.2Y-50.2
X114.2Y-52.4
X114.2Y-54.6
X114.2Y-56.8
X114.2Y-59.0
X114.2Y-61.2
X114.2Y-63.4
X114.2Y-65.6
X114.2Y-67.8
X114.2Y-70.0
X114.2Y-72.2
X114.2Y-74.4
X114.2Y-76.6
X114.2Y-78.8
X114.2Y-81.0
X114.2Y-83.2
X114.2Y-85.4
X114.2Y-87.6
X114.2Y-89.8
X114.2Y-92.0
X114.2Y-94.2
X114.2Y-96.4
X114.2Y-98.6
X114.2Y-100.8
X114.2Y-103.0
X114.2Y-105.2
X114.2Y-107.4
X114.2Y-109.6
X114.2Y-111.8
X114.2Y-114.0
X114.2Y-116.2
X114.2Y-118.4
X114.2Y-120.6
X114.2Y-122.8
X114.2Y-125.0
X114.2Y-127.2
X114.2Y-129.4
X114.2Y-131.6
X114.2Y-133.8
X114.2Y-136.0
X114.2Y-138.2
X114.2Y-140.4
X114.2Y-142.6
X114.2Y-144.8
X114.2Y-147.0
X114.2Y-149.2
X114.2Y-151.4
X114.2Y-153.6
X114.2Y-155.8
X114.2Y-158.0
X114.2Y-160.2
X114.2Y-162.4
X114.2Y-164.6
X114.2Y-175.6
X114.2Y-177.8
X114.2Y-180.0
X116.4Y-50.2
X116.4Y-52.4
X116.4Y-54.6
X116.4Y-56.8
X116.4Y-59.0
X116.4Y-61.2
X116.4Y-63.4
X116.4Y-65.6
X116.4Y-67.8
X116.4Y-70.0
X116.4Y-72.2
X116.4Y-74.4
X116.4Y-76.6
X116.4Y-78.8
X116.4Y-81.0
X116.4Y-83.2
X116.4Y-85.4
X116.4Y-87.6
X116.4Y-89.8
X116.4Y-92.0
X116.4Y-94.2
X116.4Y-96.4
X116.4Y-98.6
X116.4Y-100.8
X116.4Y-103.0
X116.4Y-105.2
X116.4Y-107.4
X116.4Y-109.6
X116.4Y-111.8
X116.4Y-114.0
X116.4Y-116.2
X116.4Y-118.4
X116.4Y-120.6
X116.4Y-122.8
X116.4Y-125.0
X116.4Y-127.2
X116.4Y-129.4
X116.4Y-131.6
X116.4Y-133.8
X116.4Y-136.0
X116.4Y-138.2
X116.4Y-140.4
X116.4Y-142.6
X116.4Y-144.8
X116.4Y-147.0
X116.4Y-149.2
X116.4Y-151.4
X116.4Y-153.6
X116.4Y-155.8
X116.4Y-158.0
X116.4Y-160.2
X116.4Y-162.4
X116.4Y-164.6
X116.4Y-166.8
X116.4Y-169.0
X116.4Y-171.2
X116.4Y-173.4
X116.4Y-175.6
X116.4Y-177.8
X116.4Y-180.0
T3
X57.45Y-53.623
X57.56Y-58.573
X61.759Y-116.959
X62.45Y-69.123
X67.0Y-156.0
X68.0Y-120.0
X68.3Y-91.5
X68.5Y-96.0
X68.8Y-115.5
X70.3Y-107.5
X71.8Y-83.0
X72.4Y-87.6
X73.5Y-155.5
X74.0Y-104.5
X75.95Y-75.623
X78.45Y-87.123
X78.5Y-75.5
X81.616Y-131.616
X81.636Y-134.136
X91.0Y-123.5
X93.45Y-113.123
X98.95Y-144.093
X103.41Y-92.663
X103.5Y-114.5
X103.5Y-116.0
X104.45Y-91.123
X107.95Y-150.253
X108.0Y-109.5
X109.0Y-111.5
T5
X61.82Y-60.893
X64.36Y-60.893
X66.9Y-60.893
X69.44Y-60.893
X71.98Y-60.893
X71.98Y-71.583
T6
X80.45Y-69.283
X80.45Y-71.823
X80.45Y-74.363
X80.45Y-76.903
X80.45Y-79.443
X80.45Y-81.983
X80.45Y-84.523
X80.45Y-87.063
X80.45Y-89.603
X80.45Y-92.143
X80.45Y-94.683
X80.45Y-97.223
X80.45Y-99.763
X80.45Y-102.303
X80.45Y-104.843
X80.45Y-107.383
X80.45Y-109.923
X80.45Y-112.463
X80.45Y-115.003
X80.45Y-117.543
X80.45Y-120.083
X80.45Y-122.623
X105.85Y-69.283
X105.85Y-71.823
X105.85Y-74.363
X105.85Y-76.903
X105.85Y-79.443
X105.85Y-81.983
X105.85Y-84.523
X105.85Y-87.063
X105.85Y-89.603
X105.85Y-92.143
X105.85Y-94.683
X105.85Y-97.223
X105.85Y-99.763
X105.85Y-102.303
X105.85Y-104.843
X105.85Y-107.383
X105.85Y-109.923
X105.85Y-112.463
X105.85Y-115.003
X105.85Y-117.543
X105.85Y-120.083
X105.85Y-122.623
T7
X70.525Y-118.735
X70.525Y-121.275
X70.76Y-94.735
X70.76Y-97.275
X73.065Y-118.735
X73.065Y-121.275
X73.3Y-94.735
X73.3Y-97.275
X87.95Y-43.623
X87.95Y-46.123
X98.95Y-43.623
X98.95Y-46.123
T8
X43.46Y-135.18
X43.46Y-137.72
X43.46Y-140.26
X43.46Y-142.8
X43.46Y-145.34
X43.46Y-147.88
X43.46Y-150.42
X43.46Y-152.96
X43.46Y-155.5
X46.0Y-155.5
X53.85Y-82.01
X53.85Y-84.55
X53.85Y-87.09
X53.85Y-89.63
X53.85Y-92.17
X53.85Y-94.71
X53.85Y-97.25
X53.85Y-99.79
X53.85Y-106.01
X53.85Y-108.55
X53.85Y-111.09
X53.85Y-113.63
X53.85Y-116.17
X53.85Y-118.71
X53.85Y-121.25
X53.85Y-123.79
X61.24Y-140.26
X61.24Y-142.8
X61.24Y-145.34
X61.24Y-147.88
X66.55Y-82.01
X66.55Y-84.55
X66.55Y-87.09
X66.55Y-89.63
X66.55Y-92.17
X66.55Y-94.71
X66.55Y-97.25
X66.55Y-99.79
X66.55Y-106.01
X66.55Y-108.55
X66.55Y-111.09
X66.55Y-113.63
X66.55Y-116.17
X66.55Y-118.71
X66.55Y-121.25
X66.55Y-123.79
X70.45Y-141.473
X70.45Y-144.013
X70.45Y-146.553
X70.45Y-149.093
X70.45Y-151.633
X70.45Y-154.173
X70.45Y-156.713
X70.45Y-159.253
X103.47Y-151.633
X106.01Y-136.393
X106.01Y-138.933
X106.01Y-141.473
X106.01Y-144.013
X106.01Y-146.553
X106.01Y-149.093
X106.01Y-151.633
X106.01Y-154.173
X106.01Y-156.713
X106.01Y-159.253
T9
X41.55Y-88.9
X41.55Y-93.1
X41.55Y-112.9
X41.55Y-117.1
X41.8Y-125.0
X41.8Y-129.2
X43.5Y-170.5
X47.05Y-88.9
X47.05Y-93.1
X47.05Y-112.9
X47.05Y-117.1
X47.3Y-125.0
X47.3Y-129.2
X49.0Y-170.5
X57.423Y-170.5
X62.923Y-170.5
X107.0Y-167.3
X107.0Y-171.5
X112.5Y-167.3
X112.5Y-171.5
T10
X58.954Y-138.812
X58.954Y-142.317
X58.954Y-145.823
X58.954Y-149.328
T11
X90.95Y-48.623
X90.95Y-56.123
X95.95Y-48.623
X95.95Y-56.123
T12
X72.101Y-142.844
X72.101Y-147.848
X72.101Y-152.852
X72.101Y-157.856
T13
X43.0Y-66.0
X43.0Y-74.0
X44.25Y-162.0
X48.0Y-66.0
X48.0Y-74.0
X49.25Y-162.0
X49.7Y-180.123
X56.9Y-180.123
X57.9Y-162.253
X62.9Y-162.253
X66.6Y-50.773
X69.9Y-180.123
X73.8Y-50.773
X77.1Y-180.123
X97.15Y-180.123
X104.35Y-180.123
T4
X46.55Y-186.673G85X46.55Y-185.573
G05
X60.05Y-186.673G85X60.05Y-185.573
G05
X63.45Y-44.223G85X63.45Y-45.323
G05
X66.75Y-186.673G85X66.75Y-185.573
G05
X76.95Y-44.223G85X76.95Y-45.323
G05
X80.25Y-186.673G85X80.25Y-185.573
G05
X94.0Y-186.673G85X94.0Y-185.573
G05
X107.5Y-186.673G85X107.5Y-185.573
G05
M30
