%TF.GenerationSoftware,KiCad,Pcbnew,9.0.6*%
%TF.CreationDate,2026-05-01T13:05:24-05:00*%
%TF.ProjectId,LANCE,4c414e43-452e-46b6-9963-61645f706362,1.02*%
%TF.SameCoordinates,Original*%
%TF.FileFunction,Paste,Bot*%
%TF.FilePolarity,Positive*%
%FSLAX46Y46*%
G04 Gerber Fmt 4.6, Leading zero omitted, Abs format (unit mm)*
G04 Created by KiCad (PCBNEW 9.0.6) date 2026-05-01 13:05:24*
%MOMM*%
%LPD*%
G01*
G04 APERTURE LIST*
G04 Aperture macros list*
%AMRoundRect*
0 Rectangle with rounded corners*
0 $1 Rounding radius*
0 $2 $3 $4 $5 $6 $7 $8 $9 X,Y pos of 4 corners*
0 Add a 4 corners polygon primitive as box body*
4,1,4,$2,$3,$4,$5,$6,$7,$8,$9,$2,$3,0*
0 Add four circle primitives for the rounded corners*
1,1,$1+$1,$2,$3*
1,1,$1+$1,$4,$5*
1,1,$1+$1,$6,$7*
1,1,$1+$1,$8,$9*
0 Add four rect primitives between the rounded corners*
20,1,$1+$1,$2,$3,$4,$5,0*
20,1,$1+$1,$4,$5,$6,$7,0*
20,1,$1+$1,$6,$7,$8,$9,0*
20,1,$1+$1,$8,$9,$2,$3,0*%
G04 Aperture macros list end*
%ADD10RoundRect,0.237500X-0.250000X-0.237500X0.250000X-0.237500X0.250000X0.237500X-0.250000X0.237500X0*%
%ADD11RoundRect,0.237500X-0.237500X0.300000X-0.237500X-0.300000X0.237500X-0.300000X0.237500X0.300000X0*%
%ADD12RoundRect,0.250000X1.100000X-0.412500X1.100000X0.412500X-1.100000X0.412500X-1.100000X-0.412500X0*%
%ADD13RoundRect,0.237500X0.300000X0.237500X-0.300000X0.237500X-0.300000X-0.237500X0.300000X-0.237500X0*%
%ADD14RoundRect,0.250000X1.275000X1.125000X-1.275000X1.125000X-1.275000X-1.125000X1.275000X-1.125000X0*%
%ADD15RoundRect,0.250000X0.850000X0.350000X-0.850000X0.350000X-0.850000X-0.350000X0.850000X-0.350000X0*%
%ADD16R,0.838200X1.803400*%
%ADD17R,0.838200X0.711200*%
%ADD18RoundRect,0.237500X0.250000X0.237500X-0.250000X0.237500X-0.250000X-0.237500X0.250000X-0.237500X0*%
%ADD19RoundRect,0.237500X-0.300000X-0.237500X0.300000X-0.237500X0.300000X0.237500X-0.300000X0.237500X0*%
%ADD20RoundRect,0.225000X0.225000X0.375000X-0.225000X0.375000X-0.225000X-0.375000X0.225000X-0.375000X0*%
%ADD21RoundRect,0.150000X0.825000X0.150000X-0.825000X0.150000X-0.825000X-0.150000X0.825000X-0.150000X0*%
%ADD22RoundRect,0.250000X-1.100000X0.412500X-1.100000X-0.412500X1.100000X-0.412500X1.100000X0.412500X0*%
%ADD23R,0.508000X0.508000*%
%ADD24RoundRect,0.237500X0.237500X-0.250000X0.237500X0.250000X-0.237500X0.250000X-0.237500X-0.250000X0*%
G04 APERTURE END LIST*
D10*
%TO.C,R19*%
X65500000Y-129000000D03*
X67325000Y-129000000D03*
%TD*%
D11*
%TO.C,C1*%
X90450000Y-89897749D03*
X90450000Y-91622749D03*
%TD*%
%TO.C,C5*%
X87950000Y-66100249D03*
X87950000Y-67825249D03*
%TD*%
D12*
%TO.C,C14*%
X58000000Y-100125000D03*
X58000000Y-97000000D03*
%TD*%
D13*
%TO.C,C3*%
X99175000Y-96122749D03*
X97450000Y-96122749D03*
%TD*%
D14*
%TO.C,Q3*%
X81800000Y-60122749D03*
X81800000Y-57072749D03*
X78450000Y-60122749D03*
X78450000Y-57072749D03*
D15*
X86425000Y-56317749D03*
X86425000Y-60877749D03*
%TD*%
D16*
%TO.C,D4*%
X82450000Y-66122749D03*
D17*
X82450000Y-67964249D03*
%TD*%
D18*
%TO.C,R2*%
X84775000Y-113122749D03*
X82950000Y-113122749D03*
%TD*%
D19*
%TO.C,C7*%
X95950000Y-52622749D03*
X97675000Y-52622749D03*
%TD*%
D18*
%TO.C,R10*%
X60775000Y-58632749D03*
X58950000Y-58632749D03*
%TD*%
D10*
%TO.C,R7*%
X76125000Y-74122749D03*
X77950000Y-74122749D03*
%TD*%
D12*
%TO.C,C15*%
X58000000Y-124125000D03*
X58000000Y-121000000D03*
%TD*%
D18*
%TO.C,R4*%
X60775000Y-53622749D03*
X58950000Y-53622749D03*
%TD*%
D10*
%TO.C,R9*%
X58950000Y-56122749D03*
X60775000Y-56122749D03*
%TD*%
D20*
%TO.C,D5*%
X86600000Y-63622749D03*
X83300000Y-63622749D03*
%TD*%
D21*
%TO.C,U1*%
X101450000Y-90122749D03*
X101450000Y-91392749D03*
X101450000Y-92662749D03*
X101450000Y-93932749D03*
X96500000Y-93932749D03*
X96500000Y-92662749D03*
X96500000Y-91392749D03*
X96500000Y-90122749D03*
%TD*%
D10*
%TO.C,R20*%
X101125000Y-146462749D03*
X102950000Y-146462749D03*
%TD*%
D22*
%TO.C,C2*%
X85450000Y-65900249D03*
X85450000Y-69025249D03*
%TD*%
D18*
%TO.C,R8*%
X77950000Y-72622749D03*
X76125000Y-72622749D03*
%TD*%
D10*
%TO.C,R12*%
X92125000Y-92622749D03*
X93950000Y-92622749D03*
%TD*%
%TO.C,R3*%
X82950000Y-114622749D03*
X84775000Y-114622749D03*
%TD*%
D23*
%TO.C,Q2*%
X72500000Y-128000000D03*
X72500000Y-129900002D03*
X70112400Y-128950001D03*
%TD*%
D11*
%TO.C,C4*%
X98950000Y-97897749D03*
X98950000Y-99622749D03*
%TD*%
D18*
%TO.C,R11*%
X93950000Y-91122749D03*
X92125000Y-91122749D03*
%TD*%
D19*
%TO.C,C6*%
X99725000Y-52622749D03*
X101450000Y-52622749D03*
%TD*%
D10*
%TO.C,R5*%
X76125000Y-77122749D03*
X77950000Y-77122749D03*
%TD*%
%TO.C,R21*%
X100950000Y-156962749D03*
X102775000Y-156962749D03*
%TD*%
D18*
%TO.C,R6*%
X77950000Y-78622749D03*
X76125000Y-78622749D03*
%TD*%
D24*
%TO.C,R17*%
X82450000Y-53035249D03*
X82450000Y-51210249D03*
%TD*%
M02*
