ISO-10303-21;
HEADER;
/* Generated by software containing ST-Developer
 * from STEP Tools, Inc. (www.steptools.com) 
 */

FILE_DESCRIPTION(
/* description */ (''),
/* implementation_level */ '2;1');

FILE_NAME(
/* name */ '5mm LED Diode 2p.step',
/* time_stamp */ '2024-11-07T08:52:27+10:00',
/* author */ (''),
/* organization */ (''),
/* preprocessor_version */ 'ST-DEVELOPER v20',
/* originating_system */ 'Autodesk Translation Framework v13.20.0.188',

/* authorisation */ '');

FILE_SCHEMA (('AUTOMOTIVE_DESIGN { 1 0 10303 214 3 1 1 }'));
ENDSEC;

DATA;
#10=MECHANICAL_DESIGN_GEOMETRIC_PRESENTATION_REPRESENTATION('',(#13,#14,
#15),#1008);
#11=SHAPE_REPRESENTATION_RELATIONSHIP('SRR','None',#1015,#12);
#12=ADVANCED_BREP_SHAPE_REPRESENTATION('',(#16,#17,#18),#1007);
#13=STYLED_ITEM('',(#1025),#16);
#14=STYLED_ITEM('',(#1026),#17);
#15=STYLED_ITEM('',(#1026),#18);
#16=MANIFOLD_SOLID_BREP('Body1',#616);
#17=MANIFOLD_SOLID_BREP('Body2',#617);
#18=MANIFOLD_SOLID_BREP('Body3',#618);
#19=SPHERICAL_SURFACE('',#641,2.5);
#20=FACE_BOUND('',#212,.T.);
#21=LINE('',#841,#96);
#22=LINE('',#848,#97);
#23=LINE('',#858,#98);
#24=LINE('',#860,#99);
#25=LINE('',#862,#100);
#26=LINE('',#863,#101);
#27=LINE('',#866,#102);
#28=LINE('',#868,#103);
#29=LINE('',#869,#104);
#30=LINE('',#872,#105);
#31=LINE('',#874,#106);
#32=LINE('',#875,#107);
#33=LINE('',#878,#108);
#34=LINE('',#880,#109);
#35=LINE('',#881,#110);
#36=LINE('',#884,#111);
#37=LINE('',#886,#112);
#38=LINE('',#887,#113);
#39=LINE('',#890,#114);
#40=LINE('',#892,#115);
#41=LINE('',#893,#116);
#42=LINE('',#896,#117);
#43=LINE('',#898,#118);
#44=LINE('',#899,#119);
#45=LINE('',#902,#120);
#46=LINE('',#904,#121);
#47=LINE('',#905,#122);
#48=LINE('',#909,#123);
#49=LINE('',#910,#124);
#50=LINE('',#911,#125);
#51=LINE('',#915,#126);
#52=LINE('',#917,#127);
#53=LINE('',#919,#128);
#54=LINE('',#920,#129);
#55=LINE('',#923,#130);
#56=LINE('',#925,#131);
#57=LINE('',#926,#132);
#58=LINE('',#929,#133);
#59=LINE('',#931,#134);
#60=LINE('',#932,#135);
#61=LINE('',#934,#136);
#62=LINE('',#935,#137);
#63=LINE('',#937,#138);
#64=LINE('',#938,#139);
#65=LINE('',#940,#140);
#66=LINE('',#943,#141);
#67=LINE('',#948,#142);
#68=LINE('',#950,#143);
#69=LINE('',#952,#144);
#70=LINE('',#953,#145);
#71=LINE('',#957,#146);
#72=LINE('',#959,#147);
#73=LINE('',#961,#148);
#74=LINE('',#962,#149);
#75=LINE('',#965,#150);
#76=LINE('',#967,#151);
#77=LINE('',#968,#152);
#78=LINE('',#970,#153);
#79=LINE('',#971,#154);
#80=LINE('',#975,#155);
#81=LINE('',#977,#156);
#82=LINE('',#979,#157);
#83=LINE('',#980,#158);
#84=LINE('',#983,#159);
#85=LINE('',#985,#160);
#86=LINE('',#986,#161);
#87=LINE('',#989,#162);
#88=LINE('',#991,#163);
#89=LINE('',#992,#164);
#90=LINE('',#994,#165);
#91=LINE('',#995,#166);
#92=LINE('',#997,#167);
#93=LINE('',#998,#168);
#94=LINE('',#1000,#169);
#95=LINE('',#1003,#170);
#96=VECTOR('',#682,2.9);
#97=VECTOR('',#691,2.5);
#98=VECTOR('',#702,10.);
#99=VECTOR('',#703,10.);
#100=VECTOR('',#704,10.);
#101=VECTOR('',#705,10.);
#102=VECTOR('',#708,10.);
#103=VECTOR('',#709,10.);
#104=VECTOR('',#710,10.);
#105=VECTOR('',#713,10.);
#106=VECTOR('',#714,10.);
#107=VECTOR('',#715,10.);
#108=VECTOR('',#718,10.);
#109=VECTOR('',#719,10.);
#110=VECTOR('',#720,10.);
#111=VECTOR('',#723,10.);
#112=VECTOR('',#724,10.);
#113=VECTOR('',#725,10.);
#114=VECTOR('',#728,10.);
#115=VECTOR('',#729,10.);
#116=VECTOR('',#730,10.);
#117=VECTOR('',#733,10.);
#118=VECTOR('',#734,10.);
#119=VECTOR('',#735,10.);
#120=VECTOR('',#738,10.);
#121=VECTOR('',#739,10.);
#122=VECTOR('',#740,10.);
#123=VECTOR('',#743,10.);
#124=VECTOR('',#744,10.);
#125=VECTOR('',#745,10.);
#126=VECTOR('',#748,10.);
#127=VECTOR('',#749,10.);
#128=VECTOR('',#750,10.);
#129=VECTOR('',#751,10.);
#130=VECTOR('',#754,10.);
#131=VECTOR('',#755,10.);
#132=VECTOR('',#756,10.);
#133=VECTOR('',#759,10.);
#134=VECTOR('',#760,10.);
#135=VECTOR('',#761,10.);
#136=VECTOR('',#764,10.);
#137=VECTOR('',#765,10.);
#138=VECTOR('',#768,10.);
#139=VECTOR('',#769,10.);
#140=VECTOR('',#772,10.);
#141=VECTOR('',#777,10.);
#142=VECTOR('',#782,10.);
#143=VECTOR('',#783,10.);
#144=VECTOR('',#784,10.);
#145=VECTOR('',#785,10.);
#146=VECTOR('',#788,10.);
#147=VECTOR('',#789,10.);
#148=VECTOR('',#790,10.);
#149=VECTOR('',#791,10.);
#150=VECTOR('',#794,10.);
#151=VECTOR('',#795,10.);
#152=VECTOR('',#796,10.);
#153=VECTOR('',#799,10.);
#154=VECTOR('',#800,10.);
#155=VECTOR('',#803,10.);
#156=VECTOR('',#804,10.);
#157=VECTOR('',#805,10.);
#158=VECTOR('',#806,10.);
#159=VECTOR('',#809,10.);
#160=VECTOR('',#810,10.);
#161=VECTOR('',#811,10.);
#162=VECTOR('',#814,10.);
#163=VECTOR('',#815,10.);
#164=VECTOR('',#816,10.);
#165=VECTOR('',#819,10.);
#166=VECTOR('',#820,10.);
#167=VECTOR('',#823,10.);
#168=VECTOR('',#824,10.);
#169=VECTOR('',#827,10.);
#170=VECTOR('',#832,10.);
#171=CYLINDRICAL_SURFACE('',#634,2.9);
#172=CYLINDRICAL_SURFACE('',#638,2.5);
#173=FACE_OUTER_BOUND('',#209,.T.);
#174=FACE_OUTER_BOUND('',#210,.T.);
#175=FACE_OUTER_BOUND('',#211,.T.);
#176=FACE_OUTER_BOUND('',#213,.T.);
#177=FACE_OUTER_BOUND('',#214,.T.);
#178=FACE_OUTER_BOUND('',#215,.T.);
#179=FACE_OUTER_BOUND('',#216,.T.);
#180=FACE_OUTER_BOUND('',#217,.T.);
#181=FACE_OUTER_BOUND('',#218,.T.);
#182=FACE_OUTER_BOUND('',#219,.T.);
#183=FACE_OUTER_BOUND('',#220,.T.);
#184=FACE_OUTER_BOUND('',#221,.T.);
#185=FACE_OUTER_BOUND('',#222,.T.);
#186=FACE_OUTER_BOUND('',#223,.T.);
#187=FACE_OUTER_BOUND('',#224,.T.);
#188=FACE_OUTER_BOUND('',#225,.T.);
#189=FACE_OUTER_BOUND('',#226,.T.);
#190=FACE_OUTER_BOUND('',#227,.T.);
#191=FACE_OUTER_BOUND('',#228,.T.);
#192=FACE_OUTER_BOUND('',#229,.T.);
#193=FACE_OUTER_BOUND('',#230,.T.);
#194=FACE_OUTER_BOUND('',#231,.T.);
#195=FACE_OUTER_BOUND('',#232,.T.);
#196=FACE_OUTER_BOUND('',#233,.T.);
#197=FACE_OUTER_BOUND('',#234,.T.);
#198=FACE_OUTER_BOUND('',#235,.T.);
#199=FACE_OUTER_BOUND('',#236,.T.);
#200=FACE_OUTER_BOUND('',#237,.T.);
#201=FACE_OUTER_BOUND('',#238,.T.);
#202=FACE_OUTER_BOUND('',#239,.T.);
#203=FACE_OUTER_BOUND('',#240,.T.);
#204=FACE_OUTER_BOUND('',#241,.T.);
#205=FACE_OUTER_BOUND('',#242,.T.);
#206=FACE_OUTER_BOUND('',#243,.T.);
#207=FACE_OUTER_BOUND('',#244,.T.);
#208=FACE_OUTER_BOUND('',#245,.T.);
#209=EDGE_LOOP('',(#385));
#210=EDGE_LOOP('',(#386,#387,#388,#389));
#211=EDGE_LOOP('',(#390));
#212=EDGE_LOOP('',(#391));
#213=EDGE_LOOP('',(#392,#393,#394,#395,#396));
#214=EDGE_LOOP('',(#397,#398,#399,#400));
#215=EDGE_LOOP('',(#401,#402,#403,#404));
#216=EDGE_LOOP('',(#405,#406,#407,#408));
#217=EDGE_LOOP('',(#409,#410,#411,#412));
#218=EDGE_LOOP('',(#413,#414,#415,#416));
#219=EDGE_LOOP('',(#417,#418,#419,#420));
#220=EDGE_LOOP('',(#421,#422,#423,#424));
#221=EDGE_LOOP('',(#425,#426,#427,#428));
#222=EDGE_LOOP('',(#429,#430,#431,#432));
#223=EDGE_LOOP('',(#433,#434,#435,#436));
#224=EDGE_LOOP('',(#437,#438,#439,#440));
#225=EDGE_LOOP('',(#441,#442,#443,#444));
#226=EDGE_LOOP('',(#445,#446,#447,#448));
#227=EDGE_LOOP('',(#449,#450,#451,#452));
#228=EDGE_LOOP('',(#453,#454,#455,#456));
#229=EDGE_LOOP('',(#457,#458,#459,#460,#461,#462,#463,#464,#465,#466,#467,
#468));
#230=EDGE_LOOP('',(#469,#470,#471,#472));
#231=EDGE_LOOP('',(#473,#474,#475,#476));
#232=EDGE_LOOP('',(#477,#478,#479,#480,#481,#482,#483,#484,#485,#486,#487,
#488));
#233=EDGE_LOOP('',(#489,#490,#491,#492));
#234=EDGE_LOOP('',(#493,#494,#495,#496));
#235=EDGE_LOOP('',(#497,#498,#499,#500));
#236=EDGE_LOOP('',(#501,#502,#503,#504));
#237=EDGE_LOOP('',(#505,#506,#507,#508));
#238=EDGE_LOOP('',(#509,#510,#511,#512));
#239=EDGE_LOOP('',(#513,#514,#515,#516));
#240=EDGE_LOOP('',(#517,#518,#519,#520));
#241=EDGE_LOOP('',(#521,#522,#523,#524));
#242=EDGE_LOOP('',(#525,#526,#527,#528,#529,#530,#531));
#243=EDGE_LOOP('',(#532,#533,#534,#535));
#244=EDGE_LOOP('',(#536,#537,#538,#539));
#245=EDGE_LOOP('',(#540,#541,#542,#543,#544,#545,#546));
#246=CIRCLE('',#633,2.9);
#247=CIRCLE('',#635,2.9);
#248=CIRCLE('',#637,2.5);
#249=CIRCLE('',#639,2.5);
#250=CIRCLE('',#640,2.5);
#251=CIRCLE('',#642,2.5);
#252=VERTEX_POINT('',#837);
#253=VERTEX_POINT('',#840);
#254=VERTEX_POINT('',#844);
#255=VERTEX_POINT('',#847);
#256=VERTEX_POINT('',#849);
#257=VERTEX_POINT('',#853);
#258=VERTEX_POINT('',#856);
#259=VERTEX_POINT('',#857);
#260=VERTEX_POINT('',#859);
#261=VERTEX_POINT('',#861);
#262=VERTEX_POINT('',#865);
#263=VERTEX_POINT('',#867);
#264=VERTEX_POINT('',#871);
#265=VERTEX_POINT('',#873);
#266=VERTEX_POINT('',#877);
#267=VERTEX_POINT('',#879);
#268=VERTEX_POINT('',#883);
#269=VERTEX_POINT('',#885);
#270=VERTEX_POINT('',#889);
#271=VERTEX_POINT('',#891);
#272=VERTEX_POINT('',#895);
#273=VERTEX_POINT('',#897);
#274=VERTEX_POINT('',#901);
#275=VERTEX_POINT('',#903);
#276=VERTEX_POINT('',#907);
#277=VERTEX_POINT('',#908);
#278=VERTEX_POINT('',#913);
#279=VERTEX_POINT('',#914);
#280=VERTEX_POINT('',#916);
#281=VERTEX_POINT('',#918);
#282=VERTEX_POINT('',#922);
#283=VERTEX_POINT('',#924);
#284=VERTEX_POINT('',#928);
#285=VERTEX_POINT('',#930);
#286=VERTEX_POINT('',#946);
#287=VERTEX_POINT('',#947);
#288=VERTEX_POINT('',#949);
#289=VERTEX_POINT('',#951);
#290=VERTEX_POINT('',#955);
#291=VERTEX_POINT('',#956);
#292=VERTEX_POINT('',#958);
#293=VERTEX_POINT('',#960);
#294=VERTEX_POINT('',#964);
#295=VERTEX_POINT('',#966);
#296=VERTEX_POINT('',#973);
#297=VERTEX_POINT('',#974);
#298=VERTEX_POINT('',#976);
#299=VERTEX_POINT('',#978);
#300=VERTEX_POINT('',#982);
#301=VERTEX_POINT('',#984);
#302=VERTEX_POINT('',#988);
#303=VERTEX_POINT('',#990);
#304=EDGE_CURVE('',#252,#252,#246,.T.);
#305=EDGE_CURVE('',#252,#253,#21,.T.);
#306=EDGE_CURVE('',#253,#253,#247,.T.);
#307=EDGE_CURVE('',#254,#254,#248,.T.);
#308=EDGE_CURVE('',#254,#255,#22,.T.);
#309=EDGE_CURVE('',#255,#256,#249,.T.);
#310=EDGE_CURVE('',#256,#255,#250,.T.);
#311=EDGE_CURVE('',#257,#256,#251,.T.);
#312=EDGE_CURVE('',#258,#259,#23,.T.);
#313=EDGE_CURVE('',#260,#258,#24,.T.);
#314=EDGE_CURVE('',#261,#260,#25,.T.);
#315=EDGE_CURVE('',#259,#261,#26,.T.);
#316=EDGE_CURVE('',#262,#260,#27,.T.);
#317=EDGE_CURVE('',#263,#262,#28,.T.);
#318=EDGE_CURVE('',#261,#263,#29,.T.);
#319=EDGE_CURVE('',#264,#262,#30,.T.);
#320=EDGE_CURVE('',#265,#264,#31,.T.);
#321=EDGE_CURVE('',#263,#265,#32,.T.);
#322=EDGE_CURVE('',#266,#264,#33,.T.);
#323=EDGE_CURVE('',#267,#266,#34,.T.);
#324=EDGE_CURVE('',#265,#267,#35,.T.);
#325=EDGE_CURVE('',#268,#266,#36,.T.);
#326=EDGE_CURVE('',#269,#268,#37,.T.);
#327=EDGE_CURVE('',#267,#269,#38,.T.);
#328=EDGE_CURVE('',#270,#268,#39,.T.);
#329=EDGE_CURVE('',#271,#270,#40,.T.);
#330=EDGE_CURVE('',#269,#271,#41,.T.);
#331=EDGE_CURVE('',#272,#270,#42,.T.);
#332=EDGE_CURVE('',#273,#272,#43,.T.);
#333=EDGE_CURVE('',#271,#273,#44,.T.);
#334=EDGE_CURVE('',#274,#272,#45,.T.);
#335=EDGE_CURVE('',#275,#274,#46,.T.);
#336=EDGE_CURVE('',#273,#275,#47,.T.);
#337=EDGE_CURVE('',#276,#277,#48,.T.);
#338=EDGE_CURVE('',#258,#277,#49,.T.);
#339=EDGE_CURVE('',#276,#259,#50,.T.);
#340=EDGE_CURVE('',#278,#279,#51,.T.);
#341=EDGE_CURVE('',#279,#280,#52,.T.);
#342=EDGE_CURVE('',#280,#281,#53,.T.);
#343=EDGE_CURVE('',#278,#281,#54,.T.);
#344=EDGE_CURVE('',#279,#282,#55,.T.);
#345=EDGE_CURVE('',#282,#283,#56,.T.);
#346=EDGE_CURVE('',#283,#280,#57,.T.);
#347=EDGE_CURVE('',#282,#284,#58,.T.);
#348=EDGE_CURVE('',#284,#285,#59,.T.);
#349=EDGE_CURVE('',#285,#283,#60,.T.);
#350=EDGE_CURVE('',#281,#285,#61,.T.);
#351=EDGE_CURVE('',#284,#278,#62,.T.);
#352=EDGE_CURVE('',#277,#281,#63,.T.);
#353=EDGE_CURVE('',#276,#285,#64,.T.);
#354=EDGE_CURVE('',#280,#274,#65,.T.);
#355=EDGE_CURVE('',#275,#283,#66,.T.);
#356=EDGE_CURVE('',#286,#287,#67,.T.);
#357=EDGE_CURVE('',#288,#286,#68,.T.);
#358=EDGE_CURVE('',#289,#288,#69,.T.);
#359=EDGE_CURVE('',#287,#289,#70,.T.);
#360=EDGE_CURVE('',#290,#291,#71,.T.);
#361=EDGE_CURVE('',#292,#291,#72,.T.);
#362=EDGE_CURVE('',#293,#292,#73,.T.);
#363=EDGE_CURVE('',#290,#293,#74,.T.);
#364=EDGE_CURVE('',#294,#292,#75,.T.);
#365=EDGE_CURVE('',#295,#294,#76,.T.);
#366=EDGE_CURVE('',#293,#295,#77,.T.);
#367=EDGE_CURVE('',#286,#294,#78,.T.);
#368=EDGE_CURVE('',#295,#287,#79,.T.);
#369=EDGE_CURVE('',#296,#297,#80,.T.);
#370=EDGE_CURVE('',#297,#298,#81,.T.);
#371=EDGE_CURVE('',#298,#299,#82,.T.);
#372=EDGE_CURVE('',#296,#299,#83,.T.);
#373=EDGE_CURVE('',#297,#300,#84,.T.);
#374=EDGE_CURVE('',#300,#301,#85,.T.);
#375=EDGE_CURVE('',#301,#298,#86,.T.);
#376=EDGE_CURVE('',#300,#302,#87,.T.);
#377=EDGE_CURVE('',#302,#303,#88,.T.);
#378=EDGE_CURVE('',#303,#301,#89,.T.);
#379=EDGE_CURVE('',#299,#303,#90,.T.);
#380=EDGE_CURVE('',#302,#296,#91,.T.);
#381=EDGE_CURVE('',#289,#299,#92,.T.);
#382=EDGE_CURVE('',#288,#303,#93,.T.);
#383=EDGE_CURVE('',#298,#290,#94,.T.);
#384=EDGE_CURVE('',#291,#301,#95,.T.);
#385=ORIENTED_EDGE('',*,*,#304,.T.);
#386=ORIENTED_EDGE('',*,*,#304,.F.);
#387=ORIENTED_EDGE('',*,*,#305,.T.);
#388=ORIENTED_EDGE('',*,*,#306,.T.);
#389=ORIENTED_EDGE('',*,*,#305,.F.);
#390=ORIENTED_EDGE('',*,*,#306,.F.);
#391=ORIENTED_EDGE('',*,*,#307,.T.);
#392=ORIENTED_EDGE('',*,*,#307,.F.);
#393=ORIENTED_EDGE('',*,*,#308,.T.);
#394=ORIENTED_EDGE('',*,*,#309,.T.);
#395=ORIENTED_EDGE('',*,*,#310,.T.);
#396=ORIENTED_EDGE('',*,*,#308,.F.);
#397=ORIENTED_EDGE('',*,*,#310,.F.);
#398=ORIENTED_EDGE('',*,*,#311,.F.);
#399=ORIENTED_EDGE('',*,*,#311,.T.);
#400=ORIENTED_EDGE('',*,*,#309,.F.);
#401=ORIENTED_EDGE('',*,*,#312,.F.);
#402=ORIENTED_EDGE('',*,*,#313,.F.);
#403=ORIENTED_EDGE('',*,*,#314,.F.);
#404=ORIENTED_EDGE('',*,*,#315,.F.);
#405=ORIENTED_EDGE('',*,*,#314,.T.);
#406=ORIENTED_EDGE('',*,*,#316,.F.);
#407=ORIENTED_EDGE('',*,*,#317,.F.);
#408=ORIENTED_EDGE('',*,*,#318,.F.);
#409=ORIENTED_EDGE('',*,*,#317,.T.);
#410=ORIENTED_EDGE('',*,*,#319,.F.);
#411=ORIENTED_EDGE('',*,*,#320,.F.);
#412=ORIENTED_EDGE('',*,*,#321,.F.);
#413=ORIENTED_EDGE('',*,*,#320,.T.);
#414=ORIENTED_EDGE('',*,*,#322,.F.);
#415=ORIENTED_EDGE('',*,*,#323,.F.);
#416=ORIENTED_EDGE('',*,*,#324,.F.);
#417=ORIENTED_EDGE('',*,*,#323,.T.);
#418=ORIENTED_EDGE('',*,*,#325,.F.);
#419=ORIENTED_EDGE('',*,*,#326,.F.);
#420=ORIENTED_EDGE('',*,*,#327,.F.);
#421=ORIENTED_EDGE('',*,*,#326,.T.);
#422=ORIENTED_EDGE('',*,*,#328,.F.);
#423=ORIENTED_EDGE('',*,*,#329,.F.);
#424=ORIENTED_EDGE('',*,*,#330,.F.);
#425=ORIENTED_EDGE('',*,*,#329,.T.);
#426=ORIENTED_EDGE('',*,*,#331,.F.);
#427=ORIENTED_EDGE('',*,*,#332,.F.);
#428=ORIENTED_EDGE('',*,*,#333,.F.);
#429=ORIENTED_EDGE('',*,*,#332,.T.);
#430=ORIENTED_EDGE('',*,*,#334,.F.);
#431=ORIENTED_EDGE('',*,*,#335,.F.);
#432=ORIENTED_EDGE('',*,*,#336,.F.);
#433=ORIENTED_EDGE('',*,*,#337,.T.);
#434=ORIENTED_EDGE('',*,*,#338,.F.);
#435=ORIENTED_EDGE('',*,*,#312,.T.);
#436=ORIENTED_EDGE('',*,*,#339,.F.);
#437=ORIENTED_EDGE('',*,*,#340,.T.);
#438=ORIENTED_EDGE('',*,*,#341,.T.);
#439=ORIENTED_EDGE('',*,*,#342,.T.);
#440=ORIENTED_EDGE('',*,*,#343,.F.);
#441=ORIENTED_EDGE('',*,*,#344,.T.);
#442=ORIENTED_EDGE('',*,*,#345,.T.);
#443=ORIENTED_EDGE('',*,*,#346,.T.);
#444=ORIENTED_EDGE('',*,*,#341,.F.);
#445=ORIENTED_EDGE('',*,*,#347,.T.);
#446=ORIENTED_EDGE('',*,*,#348,.T.);
#447=ORIENTED_EDGE('',*,*,#349,.T.);
#448=ORIENTED_EDGE('',*,*,#345,.F.);
#449=ORIENTED_EDGE('',*,*,#350,.T.);
#450=ORIENTED_EDGE('',*,*,#348,.F.);
#451=ORIENTED_EDGE('',*,*,#351,.T.);
#452=ORIENTED_EDGE('',*,*,#343,.T.);
#453=ORIENTED_EDGE('',*,*,#350,.F.);
#454=ORIENTED_EDGE('',*,*,#352,.F.);
#455=ORIENTED_EDGE('',*,*,#337,.F.);
#456=ORIENTED_EDGE('',*,*,#353,.T.);
#457=ORIENTED_EDGE('',*,*,#342,.F.);
#458=ORIENTED_EDGE('',*,*,#354,.T.);
#459=ORIENTED_EDGE('',*,*,#334,.T.);
#460=ORIENTED_EDGE('',*,*,#331,.T.);
#461=ORIENTED_EDGE('',*,*,#328,.T.);
#462=ORIENTED_EDGE('',*,*,#325,.T.);
#463=ORIENTED_EDGE('',*,*,#322,.T.);
#464=ORIENTED_EDGE('',*,*,#319,.T.);
#465=ORIENTED_EDGE('',*,*,#316,.T.);
#466=ORIENTED_EDGE('',*,*,#313,.T.);
#467=ORIENTED_EDGE('',*,*,#338,.T.);
#468=ORIENTED_EDGE('',*,*,#352,.T.);
#469=ORIENTED_EDGE('',*,*,#340,.F.);
#470=ORIENTED_EDGE('',*,*,#351,.F.);
#471=ORIENTED_EDGE('',*,*,#347,.F.);
#472=ORIENTED_EDGE('',*,*,#344,.F.);
#473=ORIENTED_EDGE('',*,*,#346,.F.);
#474=ORIENTED_EDGE('',*,*,#355,.F.);
#475=ORIENTED_EDGE('',*,*,#335,.T.);
#476=ORIENTED_EDGE('',*,*,#354,.F.);
#477=ORIENTED_EDGE('',*,*,#349,.F.);
#478=ORIENTED_EDGE('',*,*,#353,.F.);
#479=ORIENTED_EDGE('',*,*,#339,.T.);
#480=ORIENTED_EDGE('',*,*,#315,.T.);
#481=ORIENTED_EDGE('',*,*,#318,.T.);
#482=ORIENTED_EDGE('',*,*,#321,.T.);
#483=ORIENTED_EDGE('',*,*,#324,.T.);
#484=ORIENTED_EDGE('',*,*,#327,.T.);
#485=ORIENTED_EDGE('',*,*,#330,.T.);
#486=ORIENTED_EDGE('',*,*,#333,.T.);
#487=ORIENTED_EDGE('',*,*,#336,.T.);
#488=ORIENTED_EDGE('',*,*,#355,.T.);
#489=ORIENTED_EDGE('',*,*,#356,.F.);
#490=ORIENTED_EDGE('',*,*,#357,.F.);
#491=ORIENTED_EDGE('',*,*,#358,.F.);
#492=ORIENTED_EDGE('',*,*,#359,.F.);
#493=ORIENTED_EDGE('',*,*,#360,.T.);
#494=ORIENTED_EDGE('',*,*,#361,.F.);
#495=ORIENTED_EDGE('',*,*,#362,.F.);
#496=ORIENTED_EDGE('',*,*,#363,.F.);
#497=ORIENTED_EDGE('',*,*,#362,.T.);
#498=ORIENTED_EDGE('',*,*,#364,.F.);
#499=ORIENTED_EDGE('',*,*,#365,.F.);
#500=ORIENTED_EDGE('',*,*,#366,.F.);
#501=ORIENTED_EDGE('',*,*,#365,.T.);
#502=ORIENTED_EDGE('',*,*,#367,.F.);
#503=ORIENTED_EDGE('',*,*,#356,.T.);
#504=ORIENTED_EDGE('',*,*,#368,.F.);
#505=ORIENTED_EDGE('',*,*,#369,.T.);
#506=ORIENTED_EDGE('',*,*,#370,.T.);
#507=ORIENTED_EDGE('',*,*,#371,.T.);
#508=ORIENTED_EDGE('',*,*,#372,.F.);
#509=ORIENTED_EDGE('',*,*,#373,.T.);
#510=ORIENTED_EDGE('',*,*,#374,.T.);
#511=ORIENTED_EDGE('',*,*,#375,.T.);
#512=ORIENTED_EDGE('',*,*,#370,.F.);
#513=ORIENTED_EDGE('',*,*,#376,.T.);
#514=ORIENTED_EDGE('',*,*,#377,.T.);
#515=ORIENTED_EDGE('',*,*,#378,.T.);
#516=ORIENTED_EDGE('',*,*,#374,.F.);
#517=ORIENTED_EDGE('',*,*,#379,.T.);
#518=ORIENTED_EDGE('',*,*,#377,.F.);
#519=ORIENTED_EDGE('',*,*,#380,.T.);
#520=ORIENTED_EDGE('',*,*,#372,.T.);
#521=ORIENTED_EDGE('',*,*,#379,.F.);
#522=ORIENTED_EDGE('',*,*,#381,.F.);
#523=ORIENTED_EDGE('',*,*,#358,.T.);
#524=ORIENTED_EDGE('',*,*,#382,.T.);
#525=ORIENTED_EDGE('',*,*,#371,.F.);
#526=ORIENTED_EDGE('',*,*,#383,.T.);
#527=ORIENTED_EDGE('',*,*,#363,.T.);
#528=ORIENTED_EDGE('',*,*,#366,.T.);
#529=ORIENTED_EDGE('',*,*,#368,.T.);
#530=ORIENTED_EDGE('',*,*,#359,.T.);
#531=ORIENTED_EDGE('',*,*,#381,.T.);
#532=ORIENTED_EDGE('',*,*,#369,.F.);
#533=ORIENTED_EDGE('',*,*,#380,.F.);
#534=ORIENTED_EDGE('',*,*,#376,.F.);
#535=ORIENTED_EDGE('',*,*,#373,.F.);
#536=ORIENTED_EDGE('',*,*,#375,.F.);
#537=ORIENTED_EDGE('',*,*,#384,.F.);
#538=ORIENTED_EDGE('',*,*,#360,.F.);
#539=ORIENTED_EDGE('',*,*,#383,.F.);
#540=ORIENTED_EDGE('',*,*,#378,.F.);
#541=ORIENTED_EDGE('',*,*,#382,.F.);
#542=ORIENTED_EDGE('',*,*,#357,.T.);
#543=ORIENTED_EDGE('',*,*,#367,.T.);
#544=ORIENTED_EDGE('',*,*,#364,.T.);
#545=ORIENTED_EDGE('',*,*,#361,.T.);
#546=ORIENTED_EDGE('',*,*,#384,.T.);
#547=PLANE('',#632);
#548=PLANE('',#636);
#549=PLANE('',#643);
#550=PLANE('',#644);
#551=PLANE('',#645);
#552=PLANE('',#646);
#553=PLANE('',#647);
#554=PLANE('',#648);
#555=PLANE('',#649);
#556=PLANE('',#650);
#557=PLANE('',#651);
#558=PLANE('',#652);
#559=PLANE('',#653);
#560=PLANE('',#654);
#561=PLANE('',#655);
#562=PLANE('',#656);
#563=PLANE('',#657);
#564=PLANE('',#658);
#565=PLANE('',#659);
#566=PLANE('',#660);
#567=PLANE('',#661);
#568=PLANE('',#662);
#569=PLANE('',#663);
#570=PLANE('',#664);
#571=PLANE('',#665);
#572=PLANE('',#666);
#573=PLANE('',#667);
#574=PLANE('',#668);
#575=PLANE('',#669);
#576=PLANE('',#670);
#577=PLANE('',#671);
#578=PLANE('',#672);
#579=PLANE('',#673);
#580=ADVANCED_FACE('',(#173),#547,.T.);
#581=ADVANCED_FACE('',(#174),#171,.T.);
#582=ADVANCED_FACE('',(#175,#20),#548,.T.);
#583=ADVANCED_FACE('',(#176),#172,.T.);
#584=ADVANCED_FACE('',(#177),#19,.T.);
#585=ADVANCED_FACE('',(#178),#549,.T.);
#586=ADVANCED_FACE('',(#179),#550,.T.);
#587=ADVANCED_FACE('',(#180),#551,.T.);
#588=ADVANCED_FACE('',(#181),#552,.T.);
#589=ADVANCED_FACE('',(#182),#553,.T.);
#590=ADVANCED_FACE('',(#183),#554,.T.);
#591=ADVANCED_FACE('',(#184),#555,.T.);
#592=ADVANCED_FACE('',(#185),#556,.T.);
#593=ADVANCED_FACE('',(#186),#557,.T.);
#594=ADVANCED_FACE('',(#187),#558,.T.);
#595=ADVANCED_FACE('',(#188),#559,.T.);
#596=ADVANCED_FACE('',(#189),#560,.T.);
#597=ADVANCED_FACE('',(#190),#561,.T.);
#598=ADVANCED_FACE('',(#191),#562,.T.);
#599=ADVANCED_FACE('',(#192),#563,.T.);
#600=ADVANCED_FACE('',(#193),#564,.T.);
#601=ADVANCED_FACE('',(#194),#565,.T.);
#602=ADVANCED_FACE('',(#195),#566,.T.);
#603=ADVANCED_FACE('',(#196),#567,.T.);
#604=ADVANCED_FACE('',(#197),#568,.T.);
#605=ADVANCED_FACE('',(#198),#569,.T.);
#606=ADVANCED_FACE('',(#199),#570,.T.);
#607=ADVANCED_FACE('',(#200),#571,.T.);
#608=ADVANCED_FACE('',(#201),#572,.T.);
#609=ADVANCED_FACE('',(#202),#573,.T.);
#610=ADVANCED_FACE('',(#203),#574,.T.);
#611=ADVANCED_FACE('',(#204),#575,.T.);
#612=ADVANCED_FACE('',(#205),#576,.T.);
#613=ADVANCED_FACE('',(#206),#577,.T.);
#614=ADVANCED_FACE('',(#207),#578,.T.);
#615=ADVANCED_FACE('',(#208),#579,.T.);
#616=CLOSED_SHELL('',(#580,#581,#582,#583,#584));
#617=CLOSED_SHELL('',(#585,#586,#587,#588,#589,#590,#591,#592,#593,#594,
#595,#596,#597,#598,#599,#600,#601,#602));
#618=CLOSED_SHELL('',(#603,#604,#605,#606,#607,#608,#609,#610,#611,#612,
#613,#614,#615));
#619=DERIVED_UNIT_ELEMENT(#621,1.);
#620=DERIVED_UNIT_ELEMENT(#1010,-3.);
#621=(
MASS_UNIT()
NAMED_UNIT(*)
SI_UNIT(.KILO.,.GRAM.)
);
#622=DERIVED_UNIT((#619,#620));
#623=MEASURE_REPRESENTATION_ITEM('density measure',
POSITIVE_RATIO_MEASURE(7850.),#622);
#624=PROPERTY_DEFINITION_REPRESENTATION(#629,#626);
#625=PROPERTY_DEFINITION_REPRESENTATION(#630,#627);
#626=REPRESENTATION('material name',(#628),#1007);
#627=REPRESENTATION('density',(#623),#1007);
#628=DESCRIPTIVE_REPRESENTATION_ITEM('Steel','Steel');
#629=PROPERTY_DEFINITION('material property','material name',#1017);
#630=PROPERTY_DEFINITION('material property','density of part',#1017);
#631=AXIS2_PLACEMENT_3D('',#835,#674,#675);
#632=AXIS2_PLACEMENT_3D('',#836,#676,#677);
#633=AXIS2_PLACEMENT_3D('',#838,#678,#679);
#634=AXIS2_PLACEMENT_3D('',#839,#680,#681);
#635=AXIS2_PLACEMENT_3D('',#842,#683,#684);
#636=AXIS2_PLACEMENT_3D('',#843,#685,#686);
#637=AXIS2_PLACEMENT_3D('',#845,#687,#688);
#638=AXIS2_PLACEMENT_3D('',#846,#689,#690);
#639=AXIS2_PLACEMENT_3D('',#850,#692,#693);
#640=AXIS2_PLACEMENT_3D('',#851,#694,#695);
#641=AXIS2_PLACEMENT_3D('',#852,#696,#697);
#642=AXIS2_PLACEMENT_3D('',#854,#698,#699);
#643=AXIS2_PLACEMENT_3D('',#855,#700,#701);
#644=AXIS2_PLACEMENT_3D('',#864,#706,#707);
#645=AXIS2_PLACEMENT_3D('',#870,#711,#712);
#646=AXIS2_PLACEMENT_3D('',#876,#716,#717);
#647=AXIS2_PLACEMENT_3D('',#882,#721,#722);
#648=AXIS2_PLACEMENT_3D('',#888,#726,#727);
#649=AXIS2_PLACEMENT_3D('',#894,#731,#732);
#650=AXIS2_PLACEMENT_3D('',#900,#736,#737);
#651=AXIS2_PLACEMENT_3D('',#906,#741,#742);
#652=AXIS2_PLACEMENT_3D('',#912,#746,#747);
#653=AXIS2_PLACEMENT_3D('',#921,#752,#753);
#654=AXIS2_PLACEMENT_3D('',#927,#757,#758);
#655=AXIS2_PLACEMENT_3D('',#933,#762,#763);
#656=AXIS2_PLACEMENT_3D('',#936,#766,#767);
#657=AXIS2_PLACEMENT_3D('',#939,#770,#771);
#658=AXIS2_PLACEMENT_3D('',#941,#773,#774);
#659=AXIS2_PLACEMENT_3D('',#942,#775,#776);
#660=AXIS2_PLACEMENT_3D('',#944,#778,#779);
#661=AXIS2_PLACEMENT_3D('',#945,#780,#781);
#662=AXIS2_PLACEMENT_3D('',#954,#786,#787);
#663=AXIS2_PLACEMENT_3D('',#963,#792,#793);
#664=AXIS2_PLACEMENT_3D('',#969,#797,#798);
#665=AXIS2_PLACEMENT_3D('',#972,#801,#802);
#666=AXIS2_PLACEMENT_3D('',#981,#807,#808);
#667=AXIS2_PLACEMENT_3D('',#987,#812,#813);
#668=AXIS2_PLACEMENT_3D('',#993,#817,#818);
#669=AXIS2_PLACEMENT_3D('',#996,#821,#822);
#670=AXIS2_PLACEMENT_3D('',#999,#825,#826);
#671=AXIS2_PLACEMENT_3D('',#1001,#828,#829);
#672=AXIS2_PLACEMENT_3D('',#1002,#830,#831);
#673=AXIS2_PLACEMENT_3D('',#1004,#833,#834);
#674=DIRECTION('axis',(0.,0.,1.));
#675=DIRECTION('refdir',(1.,0.,0.));
#676=DIRECTION('center_axis',(0.,0.,-1.));
#677=DIRECTION('ref_axis',(-1.,0.,0.));
#678=DIRECTION('center_axis',(0.,0.,-1.));
#679=DIRECTION('ref_axis',(1.,0.,0.));
#680=DIRECTION('center_axis',(0.,0.,-1.));
#681=DIRECTION('ref_axis',(-1.,0.,0.));
#682=DIRECTION('',(0.,0.,1.));
#683=DIRECTION('center_axis',(0.,0.,-1.));
#684=DIRECTION('ref_axis',(1.,0.,0.));
#685=DIRECTION('center_axis',(0.,0.,1.));
#686=DIRECTION('ref_axis',(1.,0.,0.));
#687=DIRECTION('center_axis',(0.,0.,-1.));
#688=DIRECTION('ref_axis',(1.,0.,0.));
#689=DIRECTION('center_axis',(0.,0.,-1.));
#690=DIRECTION('ref_axis',(-1.,0.,0.));
#691=DIRECTION('',(0.,0.,1.));
#692=DIRECTION('center_axis',(0.,0.,-1.));
#693=DIRECTION('ref_axis',(1.,0.,0.));
#694=DIRECTION('center_axis',(0.,0.,-1.));
#695=DIRECTION('ref_axis',(1.,0.,0.));
#696=DIRECTION('center_axis',(6.12323399573677E-17,0.,1.));
#697=DIRECTION('ref_axis',(1.,0.,0.));
#698=DIRECTION('center_axis',(1.22464679914735E-16,-1.,0.));
#699=DIRECTION('ref_axis',(-1.,-1.22464679914735E-16,0.));
#700=DIRECTION('center_axis',(-2.30996356954874E-15,0.,-1.));
#701=DIRECTION('ref_axis',(-1.,0.,2.30996356954874E-15));
#702=DIRECTION('',(0.,-1.,0.));
#703=DIRECTION('',(-1.,0.,2.30996356954874E-15));
#704=DIRECTION('',(0.,1.,0.));
#705=DIRECTION('',(1.,0.,-2.30996356954874E-15));
#706=DIRECTION('center_axis',(0.852236840211471,0.,0.523156160420928));
#707=DIRECTION('ref_axis',(0.523156160420928,0.,-0.852236840211471));
#708=DIRECTION('',(0.523156160420928,0.,-0.852236840211471));
#709=DIRECTION('',(0.,1.,0.));
#710=DIRECTION('',(-0.523156160420928,0.,0.852236840211471));
#711=DIRECTION('center_axis',(1.,0.,-1.78562509164086E-15));
#712=DIRECTION('ref_axis',(-1.78562509164086E-15,0.,-1.));
#713=DIRECTION('',(-1.78562509164086E-15,0.,-1.));
#714=DIRECTION('',(0.,1.,0.));
#715=DIRECTION('',(1.78562509164086E-15,0.,1.));
#716=DIRECTION('center_axis',(1.8260246220483E-15,0.,1.));
#717=DIRECTION('ref_axis',(1.,0.,-1.8260246220483E-15));
#718=DIRECTION('',(1.,0.,-1.8260246220483E-15));
#719=DIRECTION('',(0.,1.,0.));
#720=DIRECTION('',(-1.,0.,1.8260246220483E-15));
#721=DIRECTION('center_axis',(-1.,0.,-6.76659118206621E-15));
#722=DIRECTION('ref_axis',(-6.76659118206622E-15,0.,1.));
#723=DIRECTION('',(-6.76659118206622E-15,0.,1.));
#724=DIRECTION('',(0.,1.,0.));
#725=DIRECTION('',(6.76659118206622E-15,0.,-1.));
#726=DIRECTION('center_axis',(2.31296449102803E-15,0.,1.));
#727=DIRECTION('ref_axis',(1.,0.,-2.31296449102803E-15));
#728=DIRECTION('',(1.,0.,-2.31296449102803E-15));
#729=DIRECTION('',(0.,1.,0.));
#730=DIRECTION('',(-1.,0.,2.31296449102803E-15));
#731=DIRECTION('center_axis',(-1.,0.,1.9428902641427E-15));
#732=DIRECTION('ref_axis',(1.9428902641427E-15,0.,1.));
#733=DIRECTION('',(1.9428902641427E-15,0.,1.));
#734=DIRECTION('',(0.,1.,0.));
#735=DIRECTION('',(-1.9428902641427E-15,0.,-1.));
#736=DIRECTION('center_axis',(0.,0.,-1.));
#737=DIRECTION('ref_axis',(-1.,0.,0.));
#738=DIRECTION('',(-1.,0.,0.));
#739=DIRECTION('',(0.,1.,0.));
#740=DIRECTION('',(1.,0.,0.));
#741=DIRECTION('center_axis',(0.999958680306403,0.,-0.00909052693064519));
#742=DIRECTION('ref_axis',(-0.00909052693064519,0.,-0.999958680306403));
#743=DIRECTION('',(0.,1.,0.));
#744=DIRECTION('',(-0.00909052693064519,0.,-0.999958680306403));
#745=DIRECTION('',(0.00909052693064519,0.,0.999958680306403));
#746=DIRECTION('center_axis',(-3.22130062515184E-16,0.928476690885259,-0.371390676354105));
#747=DIRECTION('ref_axis',(0.,0.371390676354105,0.928476690885259));
#748=DIRECTION('',(-1.,-3.46944695195361E-16,0.));
#749=DIRECTION('',(-0.348155311911397,0.348155311911396,0.870388279778488));
#750=DIRECTION('',(1.,3.46944695195361E-16,0.));
#751=DIRECTION('',(0.348155311911396,0.348155311911397,0.870388279778488));
#752=DIRECTION('center_axis',(-0.928476690885259,0.,-0.371390676354105));
#753=DIRECTION('ref_axis',(-0.371390676354105,0.,0.928476690885259));
#754=DIRECTION('',(0.,-1.,0.));
#755=DIRECTION('',(-0.348155311911397,-0.348155311911397,0.870388279778488));
#756=DIRECTION('',(0.,1.,0.));
#757=DIRECTION('center_axis',(0.,-0.928476690885259,-0.371390676354105));
#758=DIRECTION('ref_axis',(0.,0.371390676354105,-0.928476690885259));
#759=DIRECTION('',(1.,0.,0.));
#760=DIRECTION('',(0.348155311911396,-0.348155311911397,0.870388279778489));
#761=DIRECTION('',(-1.,0.,0.));
#762=DIRECTION('center_axis',(0.928476690885259,0.,-0.371390676354105));
#763=DIRECTION('ref_axis',(-0.371390676354105,0.,-0.928476690885259));
#764=DIRECTION('',(0.,-1.,0.));
#765=DIRECTION('',(0.,1.,0.));
#766=DIRECTION('center_axis',(1.,0.,0.));
#767=DIRECTION('ref_axis',(0.,-1.,0.));
#768=DIRECTION('',(0.,0.,-1.));
#769=DIRECTION('',(0.,0.,-1.));
#770=DIRECTION('center_axis',(-3.46944695195361E-16,1.,0.));
#771=DIRECTION('ref_axis',(1.,3.46944695195361E-16,0.));
#772=DIRECTION('',(0.,0.,1.));
#773=DIRECTION('center_axis',(0.,0.,-1.));
#774=DIRECTION('ref_axis',(-1.,0.,0.));
#775=DIRECTION('center_axis',(-1.,0.,0.));
#776=DIRECTION('ref_axis',(0.,1.,0.));
#777=DIRECTION('',(0.,0.,-1.));
#778=DIRECTION('center_axis',(0.,-1.,0.));
#779=DIRECTION('ref_axis',(-1.,0.,0.));
#780=DIRECTION('center_axis',(0.,0.,-1.));
#781=DIRECTION('ref_axis',(-1.,0.,0.));
#782=DIRECTION('',(0.,-1.,0.));
#783=DIRECTION('',(-1.,0.,0.));
#784=DIRECTION('',(0.,1.,0.));
#785=DIRECTION('',(1.,0.,0.));
#786=DIRECTION('center_axis',(0.,0.,1.));
#787=DIRECTION('ref_axis',(1.,0.,0.));
#788=DIRECTION('',(0.,1.,0.));
#789=DIRECTION('',(1.,0.,0.));
#790=DIRECTION('',(0.,1.,0.));
#791=DIRECTION('',(-1.,0.,0.));
#792=DIRECTION('center_axis',(-1.,0.,2.27228065792802E-15));
#793=DIRECTION('ref_axis',(2.27228065792802E-15,0.,1.));
#794=DIRECTION('',(2.27228065792802E-15,0.,1.));
#795=DIRECTION('',(0.,1.,0.));
#796=DIRECTION('',(-2.27228065792802E-15,0.,-1.));
#797=DIRECTION('center_axis',(-0.852236840211471,0.,-0.523156160420928));
#798=DIRECTION('ref_axis',(-0.523156160420928,0.,0.852236840211471));
#799=DIRECTION('',(-0.523156160420928,0.,0.852236840211471));
#800=DIRECTION('',(0.523156160420928,0.,-0.852236840211471));
#801=DIRECTION('center_axis',(0.,-0.928476690885259,-0.371390676354105));
#802=DIRECTION('ref_axis',(0.,0.371390676354105,-0.928476690885259));
#803=DIRECTION('',(1.,0.,0.));
#804=DIRECTION('',(0.348155311911397,-0.348155311911397,0.870388279778488));
#805=DIRECTION('',(-1.,0.,0.));
#806=DIRECTION('',(-0.348155311911396,-0.348155311911397,0.870388279778489));
#807=DIRECTION('center_axis',(0.928476690885259,0.,-0.371390676354105));
#808=DIRECTION('ref_axis',(-0.371390676354105,0.,-0.928476690885259));
#809=DIRECTION('',(0.,1.,0.));
#810=DIRECTION('',(0.348155311911397,0.348155311911396,0.870388279778488));
#811=DIRECTION('',(0.,-1.,0.));
#812=DIRECTION('center_axis',(3.22130062515184E-16,0.928476690885259,-0.371390676354105));
#813=DIRECTION('ref_axis',(0.,0.371390676354105,0.928476690885259));
#814=DIRECTION('',(-1.,3.46944695195361E-16,0.));
#815=DIRECTION('',(-0.348155311911396,0.348155311911397,0.870388279778489));
#816=DIRECTION('',(1.,-3.46944695195361E-16,0.));
#817=DIRECTION('center_axis',(-0.928476690885259,0.,-0.371390676354105));
#818=DIRECTION('ref_axis',(-0.371390676354105,0.,0.928476690885259));
#819=DIRECTION('',(0.,1.,0.));
#820=DIRECTION('',(0.,-1.,0.));
#821=DIRECTION('center_axis',(-1.,0.,0.));
#822=DIRECTION('ref_axis',(0.,1.,0.));
#823=DIRECTION('',(-4.16333591089449E-15,0.,-1.));
#824=DIRECTION('',(0.,0.,-1.));
#825=DIRECTION('center_axis',(0.,-1.,0.));
#826=DIRECTION('ref_axis',(-1.,0.,0.));
#827=DIRECTION('',(0.,0.,1.));
#828=DIRECTION('center_axis',(0.,0.,-1.));
#829=DIRECTION('ref_axis',(-1.,0.,0.));
#830=DIRECTION('center_axis',(1.,0.,0.));
#831=DIRECTION('ref_axis',(0.,-1.,0.));
#832=DIRECTION('',(0.,0.,-1.));
#833=DIRECTION('center_axis',(3.46944695195361E-16,1.,0.));
#834=DIRECTION('ref_axis',(1.,-3.46944695195361E-16,0.));
#835=CARTESIAN_POINT('',(0.,0.,0.));
#836=CARTESIAN_POINT('Origin',(0.,0.,-6.2));
#837=CARTESIAN_POINT('',(2.9,-3.55147571752732E-16,-6.2));
#838=CARTESIAN_POINT('Origin',(0.,0.,-6.2));
#839=CARTESIAN_POINT('Origin',(0.,0.,-5.7));
#840=CARTESIAN_POINT('',(2.9,-3.55147571752732E-16,-5.2));
#841=CARTESIAN_POINT('',(2.9,-3.55147571752732E-16,-5.7));
#842=CARTESIAN_POINT('Origin',(0.,0.,-5.2));
#843=CARTESIAN_POINT('Origin',(-2.9,0.,-5.2));
#844=CARTESIAN_POINT('',(2.5,-3.06161699786838E-16,-5.2));
#845=CARTESIAN_POINT('Origin',(0.,0.,-5.2));
#846=CARTESIAN_POINT('Origin',(0.,0.,-2.6));
#847=CARTESIAN_POINT('',(2.5,-3.06161699786838E-16,0.));
#848=CARTESIAN_POINT('',(2.5,-3.06161699786838E-16,-2.6));
#849=CARTESIAN_POINT('',(-2.5,0.,0.));
#850=CARTESIAN_POINT('Origin',(0.,0.,0.));
#851=CARTESIAN_POINT('Origin',(0.,0.,0.));
#852=CARTESIAN_POINT('Origin',(0.,0.,0.));
#853=CARTESIAN_POINT('',(-1.53080849893419E-16,-1.87469972832732E-32,2.5));
#854=CARTESIAN_POINT('Origin',(0.,0.,0.));
#855=CARTESIAN_POINT('Origin',(-0.279064603238777,0.,-4.00000005960464));
#856=CARTESIAN_POINT('',(-1.00000001490116,0.25,-4.00000005960464));
#857=CARTESIAN_POINT('',(-1.00000001490116,-0.25,-4.00000005960464));
#858=CARTESIAN_POINT('',(-1.00000001490116,0.,-4.00000005960464));
#859=CARTESIAN_POINT('',(-0.279064603238777,0.25,-4.00000005960464));
#860=CARTESIAN_POINT('',(-0.279064603238777,0.25,-4.00000005960464));
#861=CARTESIAN_POINT('',(-0.279064603238777,-0.25,-4.00000005960464));
#862=CARTESIAN_POINT('',(-0.279064603238777,0.,-4.00000005960464));
#863=CARTESIAN_POINT('',(-0.279064603238777,-0.25,-4.00000005960464));
#864=CARTESIAN_POINT('Origin',(-0.999999977648259,0.,-2.82557503708544));
#865=CARTESIAN_POINT('',(-0.999999977648259,0.25,-2.82557503708544));
#866=CARTESIAN_POINT('',(-0.999999977648259,0.25,-2.82557503708544));
#867=CARTESIAN_POINT('',(-0.999999977648259,-0.25,-2.82557503708544));
#868=CARTESIAN_POINT('',(-0.999999977648259,0.,-2.82557503708544));
#869=CARTESIAN_POINT('',(-0.999999977648259,-0.25,-2.82557503708544));
#870=CARTESIAN_POINT('Origin',(-0.999999977648258,0.,-2.35925807482562));
#871=CARTESIAN_POINT('',(-0.999999977648258,0.25,-2.35925807482562));
#872=CARTESIAN_POINT('',(-0.999999977648258,0.25,-2.35925807482562));
#873=CARTESIAN_POINT('',(-0.999999977648258,-0.25,-2.35925807482562));
#874=CARTESIAN_POINT('',(-0.999999977648258,0.,-2.35925807482562));
#875=CARTESIAN_POINT('',(-0.999999977648258,-0.25,-2.35925807482562));
#876=CARTESIAN_POINT('Origin',(-1.76000001490117,0.,-2.35925807482562));
#877=CARTESIAN_POINT('',(-1.76000001490117,0.25,-2.35925807482562));
#878=CARTESIAN_POINT('',(-1.76000001490117,0.25,-2.35925807482562));
#879=CARTESIAN_POINT('',(-1.76000001490117,-0.25,-2.35925807482562));
#880=CARTESIAN_POINT('',(-1.76000001490117,0.,-2.35925807482562));
#881=CARTESIAN_POINT('',(-1.76000001490117,-0.25,-2.35925807482562));
#882=CARTESIAN_POINT('Origin',(-1.76000001490116,0.,-4.00000005960465));
#883=CARTESIAN_POINT('',(-1.76000001490116,0.25,-4.00000005960465));
#884=CARTESIAN_POINT('',(-1.76000001490116,0.25,-4.00000005960465));
#885=CARTESIAN_POINT('',(-1.76000001490116,-0.25,-4.00000005960465));
#886=CARTESIAN_POINT('',(-1.76000001490116,0.,-4.00000005960465));
#887=CARTESIAN_POINT('',(-1.76000001490116,-0.25,-4.00000005960465));
#888=CARTESIAN_POINT('Origin',(-2.00000002980232,0.,-4.00000005960464));
#889=CARTESIAN_POINT('',(-2.00000002980232,0.25,-4.00000005960464));
#890=CARTESIAN_POINT('',(-2.00000002980232,0.25,-4.00000005960464));
#891=CARTESIAN_POINT('',(-2.00000002980232,-0.25,-4.00000005960464));
#892=CARTESIAN_POINT('',(-2.00000002980232,0.,-4.00000005960464));
#893=CARTESIAN_POINT('',(-2.00000002980232,-0.25,-4.00000005960464));
#894=CARTESIAN_POINT('Origin',(-2.00000002980232,0.,-5.00000007450581));
#895=CARTESIAN_POINT('',(-2.00000002980232,0.25,-5.00000007450581));
#896=CARTESIAN_POINT('',(-2.00000002980232,0.25,-5.00000007450581));
#897=CARTESIAN_POINT('',(-2.00000002980232,-0.25,-5.00000007450581));
#898=CARTESIAN_POINT('',(-2.00000002980232,0.,-5.00000007450581));
#899=CARTESIAN_POINT('',(-2.00000002980232,-0.25,-5.00000007450581));
#900=CARTESIAN_POINT('Origin',(-1.52,0.,-5.00000007450581));
#901=CARTESIAN_POINT('',(-1.52,0.25,-5.00000007450581));
#902=CARTESIAN_POINT('',(-1.52,0.25,-5.00000007450581));
#903=CARTESIAN_POINT('',(-1.52,-0.25,-5.00000007450581));
#904=CARTESIAN_POINT('',(-1.52,0.,-5.00000007450581));
#905=CARTESIAN_POINT('',(-1.52,-0.25,-5.00000007450581));
#906=CARTESIAN_POINT('Origin',(-1.00000001490116,0.,-4.00000005960464));
#907=CARTESIAN_POINT('',(-1.02,-0.249999953433879,-6.2));
#908=CARTESIAN_POINT('',(-1.02,0.249999953433879,-6.2));
#909=CARTESIAN_POINT('',(-1.02,0.124999976716939,-6.2));
#910=CARTESIAN_POINT('',(-1.00000001490116,0.25,-4.00000005960464));
#911=CARTESIAN_POINT('',(-1.00000001490116,-0.25,-4.00000005960464));
#912=CARTESIAN_POINT('Origin',(-1.395,0.199999953433879,-24.575));
#913=CARTESIAN_POINT('',(-1.12,0.149999953433879,-24.7));
#914=CARTESIAN_POINT('',(-1.42,0.149999953433879,-24.7));
#915=CARTESIAN_POINT('',(-1.395,0.149999953433879,-24.7));
#916=CARTESIAN_POINT('',(-1.52,0.249999953433879,-24.45));
#917=CARTESIAN_POINT('',(-1.42,0.149999953433879,-24.7));
#918=CARTESIAN_POINT('',(-1.02,0.249999953433879,-24.45));
#919=CARTESIAN_POINT('',(-1.395,0.249999953433879,-24.45));
#920=CARTESIAN_POINT('',(-1.12,0.149999953433879,-24.7));
#921=CARTESIAN_POINT('Origin',(-1.47,-0.124999976716939,-24.575));
#922=CARTESIAN_POINT('',(-1.42,-0.149999953433879,-24.7));
#923=CARTESIAN_POINT('',(-1.42,-0.124999976716939,-24.7));
#924=CARTESIAN_POINT('',(-1.52,-0.249999953433879,-24.45));
#925=CARTESIAN_POINT('',(-1.42,-0.149999953433879,-24.7));
#926=CARTESIAN_POINT('',(-1.52,-0.124999976716939,-24.45));
#927=CARTESIAN_POINT('Origin',(-1.145,-0.199999953433879,-24.575));
#928=CARTESIAN_POINT('',(-1.12,-0.149999953433879,-24.7));
#929=CARTESIAN_POINT('',(-1.145,-0.149999953433879,-24.7));
#930=CARTESIAN_POINT('',(-1.02,-0.249999953433879,-24.45));
#931=CARTESIAN_POINT('',(-1.12,-0.149999953433879,-24.7));
#932=CARTESIAN_POINT('',(-1.145,-0.249999953433879,-24.45));
#933=CARTESIAN_POINT('Origin',(-1.07,0.124999976716939,-24.575));
#934=CARTESIAN_POINT('',(-1.02,0.124999976716939,-24.45));
#935=CARTESIAN_POINT('',(-1.12,0.124999976716939,-24.7));
#936=CARTESIAN_POINT('Origin',(-1.02,0.249999953433879,-6.2));
#937=CARTESIAN_POINT('',(-1.02,0.249999953433879,-6.2));
#938=CARTESIAN_POINT('',(-1.02,-0.249999953433879,-6.2));
#939=CARTESIAN_POINT('Origin',(-1.52,0.249999953433879,-6.2));
#940=CARTESIAN_POINT('',(-1.52,0.25,-6.2));
#941=CARTESIAN_POINT('Origin',(-1.27,0.,-24.7));
#942=CARTESIAN_POINT('Origin',(-1.52,-0.249999953433879,-6.2));
#943=CARTESIAN_POINT('',(-1.52,-0.25,-6.2));
#944=CARTESIAN_POINT('Origin',(-1.02,-0.249999953433879,-6.2));
#945=CARTESIAN_POINT('Origin',(1.02,0.,-4.00000005960464));
#946=CARTESIAN_POINT('',(0.344751455826432,0.25,-4.00000005960464));
#947=CARTESIAN_POINT('',(0.344751455826432,-0.25,-4.00000005960464));
#948=CARTESIAN_POINT('',(0.344751455826432,0.,-4.00000005960464));
#949=CARTESIAN_POINT('',(1.02,0.25,-4.00000005960464));
#950=CARTESIAN_POINT('',(0.344751455826432,0.25,-4.00000005960464));
#951=CARTESIAN_POINT('',(1.02,-0.25,-4.00000005960464));
#952=CARTESIAN_POINT('',(1.02,0.,-4.00000005960464));
#953=CARTESIAN_POINT('',(0.344751455826432,-0.25,-4.00000005960464));
#954=CARTESIAN_POINT('Origin',(-0.399999991059303,0.,-2.35925807482562));
#955=CARTESIAN_POINT('',(1.52,-0.25,-2.35925807482562));
#956=CARTESIAN_POINT('',(1.52,0.25,-2.35925807482562));
#957=CARTESIAN_POINT('',(1.52,0.,-2.35925807482562));
#958=CARTESIAN_POINT('',(-0.399999991059303,0.25,-2.35925807482562));
#959=CARTESIAN_POINT('',(-0.399999991059303,0.25,-2.35925807482562));
#960=CARTESIAN_POINT('',(-0.399999991059303,-0.25,-2.35925807482562));
#961=CARTESIAN_POINT('',(-0.399999991059303,0.,-2.35925807482562));
#962=CARTESIAN_POINT('',(-0.399999991059303,-0.25,-2.35925807482562));
#963=CARTESIAN_POINT('Origin',(-0.399999991059304,0.,-2.78677795145601));
#964=CARTESIAN_POINT('',(-0.399999991059304,0.25,-2.78677795145601));
#965=CARTESIAN_POINT('',(-0.399999991059304,0.25,-2.78677795145601));
#966=CARTESIAN_POINT('',(-0.399999991059304,-0.25,-2.78677795145601));
#967=CARTESIAN_POINT('',(-0.399999991059304,0.,-2.78677795145601));
#968=CARTESIAN_POINT('',(-0.399999991059304,-0.25,-2.78677795145601));
#969=CARTESIAN_POINT('Origin',(0.344751455826432,0.,-4.00000005960464));
#970=CARTESIAN_POINT('',(1.02,0.25,-5.09999988600612));
#971=CARTESIAN_POINT('',(1.02,-0.25,-5.09999988600612));
#972=CARTESIAN_POINT('Origin',(1.395,-0.199999953433879,-23.075));
#973=CARTESIAN_POINT('',(1.12,-0.149999953433879,-23.2));
#974=CARTESIAN_POINT('',(1.42,-0.149999953433879,-23.2));
#975=CARTESIAN_POINT('',(1.395,-0.149999953433879,-23.2));
#976=CARTESIAN_POINT('',(1.52,-0.249999953433879,-22.95));
#977=CARTESIAN_POINT('',(1.42,-0.149999953433879,-23.2));
#978=CARTESIAN_POINT('',(1.02,-0.249999953433879,-22.95));
#979=CARTESIAN_POINT('',(1.395,-0.249999953433879,-22.95));
#980=CARTESIAN_POINT('',(1.12,-0.149999953433879,-23.2));
#981=CARTESIAN_POINT('Origin',(1.47,0.124999976716939,-23.075));
#982=CARTESIAN_POINT('',(1.42,0.149999953433879,-23.2));
#983=CARTESIAN_POINT('',(1.42,0.124999976716939,-23.2));
#984=CARTESIAN_POINT('',(1.52,0.249999953433879,-22.95));
#985=CARTESIAN_POINT('',(1.42,0.149999953433879,-23.2));
#986=CARTESIAN_POINT('',(1.52,0.124999976716939,-22.95));
#987=CARTESIAN_POINT('Origin',(1.145,0.199999953433879,-23.075));
#988=CARTESIAN_POINT('',(1.12,0.149999953433879,-23.2));
#989=CARTESIAN_POINT('',(1.145,0.149999953433879,-23.2));
#990=CARTESIAN_POINT('',(1.02,0.249999953433879,-22.95));
#991=CARTESIAN_POINT('',(1.12,0.149999953433879,-23.2));
#992=CARTESIAN_POINT('',(1.145,0.249999953433879,-22.95));
#993=CARTESIAN_POINT('Origin',(1.07,-0.124999976716939,-23.075));
#994=CARTESIAN_POINT('',(1.02,-0.124999976716939,-22.95));
#995=CARTESIAN_POINT('',(1.12,-0.124999976716939,-23.2));
#996=CARTESIAN_POINT('Origin',(1.02,-0.249999953433879,-6.2));
#997=CARTESIAN_POINT('',(1.02,-0.25,-6.2));
#998=CARTESIAN_POINT('',(1.02,0.249999953433879,-6.2));
#999=CARTESIAN_POINT('Origin',(1.52,-0.249999953433879,-6.2));
#1000=CARTESIAN_POINT('',(1.52,-0.25,-2.35925807482562));
#1001=CARTESIAN_POINT('Origin',(1.27,0.,-23.2));
#1002=CARTESIAN_POINT('Origin',(1.52,0.249999953433879,-6.2));
#1003=CARTESIAN_POINT('',(1.52,0.25,-2.35925807482562));
#1004=CARTESIAN_POINT('Origin',(1.02,0.249999953433879,-6.2));
#1005=UNCERTAINTY_MEASURE_WITH_UNIT(LENGTH_MEASURE(0.01),#1009,
'DISTANCE_ACCURACY_VALUE',
'Maximum model space distance between geometric entities at asserted c
onnectivities');
#1006=UNCERTAINTY_MEASURE_WITH_UNIT(LENGTH_MEASURE(0.01),#1009,
'DISTANCE_ACCURACY_VALUE',
'Maximum model space distance between geometric entities at asserted c
onnectivities');
#1007=(
GEOMETRIC_REPRESENTATION_CONTEXT(3)
GLOBAL_UNCERTAINTY_ASSIGNED_CONTEXT((#1005))
GLOBAL_UNIT_ASSIGNED_CONTEXT((#1009,#1011,#1012))
REPRESENTATION_CONTEXT('','3D')
);
#1008=(
GEOMETRIC_REPRESENTATION_CONTEXT(3)
GLOBAL_UNCERTAINTY_ASSIGNED_CONTEXT((#1006))
GLOBAL_UNIT_ASSIGNED_CONTEXT((#1009,#1011,#1012))
REPRESENTATION_CONTEXT('','3D')
);
#1009=(
LENGTH_UNIT()
NAMED_UNIT(*)
SI_UNIT(.MILLI.,.METRE.)
);
#1010=(
LENGTH_UNIT()
NAMED_UNIT(*)
SI_UNIT($,.METRE.)
);
#1011=(
NAMED_UNIT(*)
PLANE_ANGLE_UNIT()
SI_UNIT($,.RADIAN.)
);
#1012=(
NAMED_UNIT(*)
SI_UNIT($,.STERADIAN.)
SOLID_ANGLE_UNIT()
);
#1013=SHAPE_DEFINITION_REPRESENTATION(#1014,#1015);
#1014=PRODUCT_DEFINITION_SHAPE('',$,#1017);
#1015=SHAPE_REPRESENTATION('',(#631),#1007);
#1016=PRODUCT_DEFINITION_CONTEXT('part definition',#1021,'design');
#1017=PRODUCT_DEFINITION('5mm LED Diode','5mm LED Diode v1',#1018,#1016);
#1018=PRODUCT_DEFINITION_FORMATION('',$,#1023);
#1019=PRODUCT_RELATED_PRODUCT_CATEGORY('5mm LED Diode v1',
'5mm LED Diode v1',(#1023));
#1020=APPLICATION_PROTOCOL_DEFINITION('international standard',
'automotive_design',2009,#1021);
#1021=APPLICATION_CONTEXT(
'Core Data for Automotive Mechanical Design Process');
#1022=PRODUCT_CONTEXT('part definition',#1021,'mechanical');
#1023=PRODUCT('5mm LED Diode','5mm LED Diode v1',$,(#1022));
#1024=PRESENTATION_STYLE_ASSIGNMENT((#1027));
#1025=PRESENTATION_STYLE_ASSIGNMENT((#1028));
#1026=PRESENTATION_STYLE_ASSIGNMENT((#1029));
#1027=SURFACE_STYLE_USAGE(.BOTH.,#1030);
#1028=SURFACE_STYLE_USAGE(.BOTH.,#1031);
#1029=SURFACE_STYLE_USAGE(.BOTH.,#1032);
#1030=SURFACE_SIDE_STYLE('',(#1033));
#1031=SURFACE_SIDE_STYLE('',(#1034));
#1032=SURFACE_SIDE_STYLE('',(#1035));
#1033=SURFACE_STYLE_FILL_AREA(#1036);
#1034=SURFACE_STYLE_FILL_AREA(#1037);
#1035=SURFACE_STYLE_FILL_AREA(#1038);
#1036=FILL_AREA_STYLE('Steel - Satin',(#1039));
#1037=FILL_AREA_STYLE('Glass (Clear)',(#1040));
#1038=FILL_AREA_STYLE('Iron - Polished',(#1041));
#1039=FILL_AREA_STYLE_COLOUR('Steel - Satin',#1042);
#1040=FILL_AREA_STYLE_COLOUR('Glass (Clear)',#1043);
#1041=FILL_AREA_STYLE_COLOUR('Iron - Polished',#1044);
#1042=COLOUR_RGB('Steel - Satin',0.627450980392157,0.627450980392157,0.627450980392157);
#1043=COLOUR_RGB('Glass (Clear)',0.964705882352941,0.964705882352941,0.952941176470588);
#1044=COLOUR_RGB('Iron - Polished',0.749019607843137,0.741176470588235,
0.733333333333333);
ENDSEC;
END-ISO-10303-21;
